<?xml version="1.0" standalone="no"?>
<!DOCTYPE svg PUBLIC "-//W3C//DTD SVG 20010904//EN"
 "http://www.w3.org/TR/2001/REC-SVG-20010904/DTD/svg10.dtd">
<svg version="1.0" xmlns="http://www.w3.org/2000/svg"
 width="512.000000pt" height="512.000000pt" viewBox="0 0 512.000000 512.000000"
 preserveAspectRatio="xMidYMid meet">
<metadata>
Created by potrace 1.14, written by Peter Selinger 2001-2017
</metadata>
<g transform="translate(0.000000,512.000000) scale(0.100000,-0.100000)"
fill="#000000" stroke="none">
<path d="M2494 5109 c-4 -8 -3 -9 4 -5 17 10 15 1 -2 -13 -11 -9 -16 -9 -22 0
-5 8 -3 9 6 4 8 -5 11 -4 6 3 -4 6 -13 9 -21 6 -8 -4 -12 -11 -9 -16 4 -6 -3
-5 -15 1 -16 9 -20 9 -15 -2 3 -8 -2 -14 -10 -14 -8 0 -12 5 -9 11 4 6 0 5 -9
-1 -8 -7 -18 -10 -21 -6 -4 3 -7 1 -7 -6 0 -8 -7 -10 -21 -6 -16 6 -20 4 -13
-6 6 -10 3 -10 -11 1 -15 12 -17 12 -10 1 6 -11 3 -13 -13 -9 -12 4 -22 2 -22
-4 0 -5 -4 -7 -9 -4 -5 4 -12 0 -14 -6 -4 -10 -6 -10 -6 0 -1 10 -11 7 -38 -9
-20 -13 -33 -17 -28 -9 6 10 4 12 -11 5 -10 -4 -26 -8 -34 -9 -9 -1 -21 -6
-29 -10 -8 -5 -16 -4 -21 4 -5 8 -9 7 -14 -5 -3 -9 -10 -13 -16 -10 -5 3 -10
1 -10 -6 0 -6 -8 -9 -20 -6 -11 3 -23 1 -26 -4 -3 -5 -9 -7 -14 -4 -5 3 -12 0
-15 -6 -4 -5 -14 -8 -22 -5 -9 4 -21 -1 -29 -11 -13 -17 -13 -17 -14 2 0 12
-3 16 -8 9 -4 -6 -15 -10 -25 -8 -9 1 -15 -1 -12 -6 8 -13 -18 -18 -38 -8 -13
6 -19 4 -24 -7 -5 -13 -7 -14 -14 -3 -6 10 -9 8 -9 -7 0 -17 -2 -17 -10 -5 -9
13 -10 13 -10 0 0 -13 -1 -13 -10 0 -8 12 -10 12 -10 1 0 -8 -7 -11 -20 -8
-12 3 -18 1 -14 -5 4 -5 -4 -8 -17 -6 -16 2 -23 -2 -21 -10 2 -10 -2 -10 -19
-1 -19 10 -21 9 -15 -6 5 -14 4 -15 -7 -7 -10 9 -19 7 -37 -5 -13 -9 -20 -11
-16 -5 4 7 2 12 -3 12 -6 0 -11 -5 -11 -11 0 -8 -5 -7 -16 1 -12 11 -15 11
-12 -1 2 -9 -4 -13 -16 -11 -13 2 -16 -1 -10 -10 6 -11 5 -11 -8 0 -13 10 -19
10 -32 -3 -10 -11 -16 -12 -16 -4 0 8 -3 9 -13 0 -8 -6 -17 -8 -20 -4 -4 3 -7
1 -7 -5 0 -7 -4 -12 -10 -12 -5 0 -7 8 -3 18 4 11 -1 9 -16 -8 -12 -14 -19
-18 -15 -10 7 13 5 13 -8 2 -13 -10 -17 -10 -21 0 -4 8 -6 7 -6 -4 -1 -12 -6
-15 -18 -11 -10 4 -14 2 -10 -4 7 -11 -22 -11 -42 2 -10 6 -12 4 -6 -5 6 -10
4 -12 -8 -7 -11 4 -17 1 -17 -6 0 -9 -16 -14 -47 -14 -66 -2 -65 -1 -57 -15 5
-8 0 -7 -11 2 -15 12 -17 12 -10 1 6 -11 2 -13 -18 -9 -15 3 -24 1 -21 -4 4
-5 -4 -8 -17 -6 -15 2 -23 -2 -22 -9 2 -7 -4 -10 -12 -7 -9 4 -23 0 -32 -7
-11 -10 -14 -10 -9 -2 5 9 2 11 -8 7 -9 -3 -13 -10 -10 -15 3 -5 -2 -6 -10 -3
-9 3 -16 10 -16 15 0 5 -9 0 -20 -11 -12 -12 -26 -17 -36 -13 -11 4 -15 2 -11
-4 3 -5 0 -10 -8 -10 -8 0 -12 4 -10 8 3 4 -4 5 -15 2 -11 -3 -17 -10 -14 -15
4 -6 -4 -4 -17 3 -22 11 -23 11 -11 -4 11 -13 10 -15 -6 -10 -11 2 -23 0 -27
-7 -5 -8 -11 -8 -22 2 -12 10 -17 9 -28 -5 -14 -20 -29 -23 -20 -4 4 6 1 5 -7
-3 -7 -9 -21 -14 -32 -12 -13 3 -16 0 -10 -10 6 -10 5 -10 -9 1 -13 10 -17 10
-17 1 0 -9 -4 -9 -17 1 -11 10 -14 10 -9 2 4 -8 2 -13 -4 -13 -6 0 -8 -5 -4
-12 6 -10 4 -10 -8 0 -17 13 -52 6 -42 -9 3 -5 -1 -9 -9 -9 -10 0 -14 -11 -12
-41 2 -25 -1 -36 -6 -28 -7 12 -10 12 -21 0 -9 -10 -9 -12 -1 -7 9 5 12 -2 10
-24 -1 -16 -5 -30 -9 -30 -4 0 -6 -14 -4 -30 2 -22 0 -28 -8 -21 -8 7 -12 1
-11 -22 0 -18 -5 -41 -11 -52 -7 -11 -11 -32 -10 -47 1 -14 -2 -24 -7 -21 -5
3 -6 -4 -3 -15 4 -11 2 -23 -4 -27 -5 -3 -10 -1 -10 6 0 7 -2 10 -5 7 -10 -10
7 -38 19 -31 6 4 5 -1 -3 -10 -15 -19 -26 -23 -15 -5 4 7 3 8 -5 4 -9 -6 -9
-11 0 -22 8 -10 8 -14 1 -14 -6 0 -9 -7 -6 -15 4 -8 1 -15 -6 -15 -6 0 -8 -5
-5 -10 4 -6 11 -7 17 -4 7 4 8 2 4 -5 -4 -6 -11 -9 -16 -6 -5 3 -11 1 -15 -5
-3 -5 -2 -10 3 -10 5 0 9 -7 9 -15 0 -8 -4 -12 -8 -9 -17 10 -31 -76 -14 -88
6 -4 2 -8 -9 -8 -13 0 -17 -5 -13 -20 3 -11 1 -23 -5 -26 -6 -4 -5 -10 3 -15
10 -6 11 -9 2 -9 -7 0 -13 -11 -13 -25 0 -14 -5 -25 -10 -25 -12 0 -9 -22 5
-32 6 -4 2 -8 -8 -8 -15 0 -16 -3 -7 -20 8 -15 8 -20 -1 -18 -6 2 -14 -3 -17
-11 -3 -9 0 -11 8 -6 9 6 11 4 4 -6 -4 -8 -10 -23 -11 -34 -2 -10 -8 -22 -14
-26 -14 -9 -13 -20 3 -30 10 -7 8 -9 -6 -9 -13 0 -17 -5 -13 -19 2 -10 0 -26
-5 -35 -6 -11 -5 -16 4 -16 7 0 2 -7 -10 -16 -13 -9 -19 -20 -15 -27 11 -18
11 -47 0 -40 -6 4 -8 0 -4 -10 4 -12 1 -17 -11 -17 -12 0 -13 -3 -5 -8 7 -5 9
-13 3 -21 -4 -8 -6 -21 -2 -29 4 -11 1 -13 -8 -7 -10 6 -10 4 -2 -11 8 -15 7
-24 -6 -38 -13 -15 -14 -18 -2 -12 8 4 7 1 -4 -8 -10 -8 -15 -19 -12 -25 4 -6
2 -20 -4 -31 -8 -14 -8 -20 0 -20 6 0 8 -5 5 -10 -4 -6 -11 -8 -16 -5 -5 3 -6
-1 -2 -10 3 -10 0 -21 -8 -27 -11 -8 -11 -11 -1 -15 10 -4 9 -9 -5 -20 -10 -8
-12 -12 -5 -8 6 3 12 1 12 -4 0 -6 -5 -11 -11 -11 -8 0 -7 -5 1 -15 11 -13 10
-14 -4 -9 -14 5 -16 2 -12 -20 3 -15 -1 -32 -10 -40 -10 -11 -11 -15 -1 -19 9
-3 9 -7 0 -19 -7 -8 -10 -18 -6 -21 3 -4 1 -7 -5 -7 -7 0 -12 -5 -12 -11 0 -5
5 -7 12 -3 13 8 3 -12 -20 -39 -15 -16 -14 -17 4 -11 16 7 17 5 7 -8 -7 -8 -9
-19 -5 -23 4 -5 2 -5 -4 -2 -7 4 -15 0 -18 -9 -4 -10 -2 -13 7 -8 8 5 7 2 -2
-9 -9 -12 -10 -17 -2 -17 7 0 9 -5 6 -10 -4 -6 -11 -8 -16 -5 -5 4 -9 1 -9 -4
0 -6 5 -11 12 -11 6 0 3 -6 -7 -14 -16 -11 -17 -16 -7 -29 11 -13 10 -17 -5
-26 -14 -8 -15 -11 -3 -11 10 -1 9 -4 -5 -10 -13 -6 -15 -9 -5 -9 13 -1 13 -2
0 -11 -13 -8 -13 -10 -1 -10 11 0 10 -4 -4 -13 -14 -11 -15 -16 -5 -22 9 -6
11 -4 5 5 -6 9 -4 11 5 5 10 -6 10 -10 -2 -19 -8 -6 -14 -21 -13 -34 1 -13 -3
-26 -8 -29 -6 -3 -7 -1 -3 5 3 6 3 13 -1 15 -5 3 -9 -17 -10 -44 -2 -37 0 -48
10 -43 9 5 9 4 0 -6 -13 -15 -6 -43 9 -33 7 4 9 -4 6 -20 -3 -16 0 -31 8 -38
8 -6 14 -17 14 -23 0 -6 -5 -4 -10 4 -7 12 -9 10 -7 -7 0 -12 5 -19 10 -16 5
3 8 0 5 -8 -3 -8 2 -20 9 -28 10 -9 11 -17 4 -24 -7 -7 -5 -15 7 -24 9 -8 12
-12 5 -9 -6 4 -14 2 -18 -4 -3 -5 1 -10 10 -10 9 0 13 -5 10 -10 -4 -6 -2 -16
3 -23 5 -7 9 -29 8 -49 0 -20 4 -36 9 -35 6 1 9 -8 9 -21 -1 -12 4 -22 10 -22
6 0 4 -5 -4 -10 -12 -8 -12 -10 5 -11 l20 0 -20 -9 c-17 -7 -17 -9 -2 -9 18
-1 20 -8 17 -55 -1 -18 2 -26 9 -22 6 4 9 1 5 -7 -3 -8 0 -18 5 -22 6 -3 9
-11 5 -16 -3 -5 0 -17 8 -26 11 -14 11 -16 -2 -8 -12 7 -13 6 -3 -6 10 -12 10
-18 0 -29 -10 -10 -9 -11 2 -5 11 6 13 2 9 -18 -3 -15 -1 -25 5 -24 5 1 12
-14 14 -33 3 -19 8 -37 12 -40 3 -3 6 -17 6 -32 -1 -15 3 -24 8 -21 5 3 6 -4
2 -16 -4 -14 -2 -21 7 -21 10 0 9 -3 -2 -10 -8 -5 -10 -10 -4 -10 7 0 15 -7
18 -16 3 -8 2 -12 -4 -9 -6 3 -7 -1 -4 -9 3 -9 11 -16 18 -16 6 0 4 -5 -4 -10
-13 -9 -13 -10 0 -10 13 0 13 -1 0 -10 -10 -6 -11 -10 -2 -10 6 0 12 -11 12
-25 0 -14 5 -25 10 -25 6 0 10 -5 10 -11 0 -5 -6 -7 -12 -3 -7 4 -4 -3 7 -16
11 -13 14 -20 8 -16 -7 4 -13 2 -13 -4 0 -6 7 -13 15 -16 8 -4 15 -10 15 -16
0 -5 -4 -7 -8 -4 -5 3 -9 -1 -9 -9 0 -8 4 -12 8 -10 4 3 10 -2 13 -11 3 -8 2
-13 -3 -10 -5 4 -7 -3 -4 -14 3 -11 9 -23 14 -26 14 -8 11 -26 -3 -19 -7 4 -6
1 3 -7 9 -7 14 -19 11 -27 -2 -7 1 -17 8 -21 9 -6 9 -13 -1 -31 -11 -22 -11
-23 5 -10 9 8 19 11 23 7 3 -3 2 -6 -4 -6 -6 0 -13 -9 -16 -20 -3 -10 0 -18 5
-17 6 1 13 -4 16 -12 3 -8 0 -11 -7 -7 -7 5 -9 1 -5 -8 3 -9 10 -14 14 -11 5
3 6 -4 3 -15 -3 -11 0 -20 6 -20 9 0 9 -5 0 -22 -9 -17 -9 -20 3 -16 10 4 13
-2 12 -23 -1 -16 2 -29 8 -29 5 0 7 -4 3 -9 -3 -5 -1 -12 4 -16 6 -3 8 -12 5
-19 -3 -8 -1 -17 5 -21 8 -4 8 -12 0 -27 -10 -18 -9 -20 5 -15 14 6 15 3 5
-14 -8 -15 -8 -19 0 -15 12 8 12 6 15 -35 0 -14 7 -33 15 -43 12 -15 12 -16
-5 -10 -17 5 -17 4 -4 -8 8 -7 17 -22 18 -33 2 -11 9 -26 15 -34 9 -12 9 -13
-1 -7 -6 4 -12 2 -12 -3 0 -6 5 -11 11 -11 8 0 7 -6 -2 -17 -12 -14 -12 -16 0
-8 11 6 13 3 9 -13 -3 -12 -3 -21 1 -20 18 2 22 -4 11 -17 -11 -13 -11 -18 0
-28 10 -10 11 -9 5 2 -5 9 -4 12 2 8 6 -4 9 -20 7 -37 -2 -18 0 -29 6 -25 5 3
9 -5 8 -17 -2 -41 2 -48 22 -48 12 0 33 -7 48 -16 25 -15 25 -15 8 0 -26 21
-7 21 22 0 13 -9 30 -13 38 -10 8 3 17 -1 20 -9 4 -10 12 -12 29 -5 19 7 23 6
18 -5 -6 -18 8 -20 25 -3 9 9 12 9 12 -1 0 -7 5 -9 10 -6 6 3 10 -1 10 -10 0
-9 5 -13 10 -10 6 4 7 12 3 18 -3 7 4 3 17 -8 15 -13 21 -15 16 -5 -4 8 -1 7
7 -3 11 -14 16 -15 20 -5 4 10 6 10 6 -1 1 -10 4 -11 15 -2 11 9 16 9 22 0 5
-8 3 -9 -6 -4 -9 6 -11 4 -6 -4 5 -7 11 -10 14 -7 3 3 12 0 20 -7 13 -9 14 -9
8 1 -10 17 10 15 28 -4 10 -10 16 -11 16 -3 0 9 3 9 15 -1 8 -6 19 -9 25 -5 5
3 10 0 10 -7 0 -11 2 -10 9 0 6 10 10 8 14 -8 4 -15 10 -19 19 -14 23 15 38
13 39 -4 0 -14 2 -13 9 3 5 11 9 14 9 6 1 -8 7 -11 17 -7 8 3 12 2 9 -3 -3 -5
-1 -12 5 -16 5 -3 10 -1 10 5 0 7 5 8 13 3 6 -4 19 -8 27 -8 8 -1 30 -9 49
-19 18 -10 30 -13 27 -7 -4 6 -2 11 3 11 6 0 11 -6 11 -12 0 -9 4 -8 10 2 5 8
10 10 10 4 0 -7 7 -15 16 -18 8 -3 13 -2 10 2 -3 5 1 9 8 9 8 0 12 -6 10 -12
-5 -13 24 -14 45 0 8 4 12 4 9 -1 -3 -5 0 -15 8 -22 8 -7 14 -8 14 -3 0 6 13
9 29 8 16 -1 27 -7 24 -13 -2 -6 9 -10 24 -10 18 1 27 -4 25 -12 -1 -8 2 -11
8 -7 6 3 8 10 5 15 -7 11 22 7 32 -5 4 -4 2 -5 -6 0 -9 5 -12 4 -7 -3 4 -6 13
-9 21 -5 9 3 15 -1 15 -8 0 -11 3 -11 10 1 7 11 10 12 10 2 0 -8 8 -12 18 -10
9 2 23 -3 30 -12 8 -8 11 -9 7 -2 -8 15 11 16 20 1 4 -5 14 -9 23 -7 10 2 23
-3 30 -12 8 -8 11 -10 8 -3 -4 7 1 11 13 10 11 0 17 -5 15 -9 -3 -4 5 -9 18
-9 13 -1 34 -2 48 -3 14 0 28 -6 33 -13 4 -7 14 -10 22 -7 8 4 15 1 15 -5 0
-13 22 -10 32 4 5 6 8 6 8 -1 0 -7 7 -15 16 -18 8 -3 13 -2 10 3 -4 5 3 7 14
4 11 -3 20 -10 20 -15 0 -5 10 -6 21 -3 13 5 19 3 15 -3 -3 -5 2 -9 12 -8 9 0
16 -5 14 -12 -1 -8 2 -11 8 -7 6 3 8 11 5 16 -11 16 7 10 22 -8 8 -10 12 -12
8 -6 -5 10 0 11 21 3 15 -6 29 -8 32 -5 3 3 12 -4 20 -16 11 -16 17 -18 29 -8
12 10 16 10 24 -2 7 -12 9 -12 9 1 0 12 2 12 9 2 4 -7 14 -12 22 -10 8 2 13
-2 12 -9 -3 -12 14 -12 34 0 7 4 16 0 22 -10 6 -11 11 -13 11 -5 0 9 5 10 19
3 10 -6 28 -8 41 -6 16 3 24 -1 27 -16 5 -18 6 -19 20 -2 8 10 11 12 7 4 -5
-11 -2 -13 14 -9 12 4 25 1 29 -4 4 -7 1 -8 -8 -3 -8 5 -11 4 -6 -1 12 -13 71
-13 79 0 6 8 8 7 8 -1 0 -7 8 -13 18 -13 13 0 14 2 4 9 -11 7 -11 9 2 14 9 4
16 1 16 -6 0 -8 2 -9 8 -1 4 6 21 11 39 10 17 -1 31 3 30 9 -2 9 5 12 49 14
14 0 23 5 20 9 -3 5 0 9 7 10 7 0 29 2 49 3 21 1 35 6 32 10 -3 5 1 6 9 3 8
-3 18 -1 22 5 4 8 12 8 26 1 10 -6 19 -7 18 -3 -3 20 2 27 11 13 6 -9 10 -11
10 -3 0 7 7 10 17 6 11 -4 14 -3 9 5 -5 8 -2 10 9 5 10 -3 21 0 26 8 6 10 9
11 9 1 0 -9 8 -7 27 5 21 14 25 15 18 3 -7 -12 -6 -13 7 -3 8 7 18 10 21 6 4
-3 16 2 27 12 11 10 20 15 20 10 0 -4 8 -1 17 6 15 12 16 12 10 -5 -6 -16 -5
-17 8 -6 8 7 22 10 30 6 9 -3 13 -2 10 3 -3 5 5 13 17 17 36 12 49 13 43 3 -4
-5 1 -6 9 -3 9 3 16 10 16 15 0 5 5 9 11 9 5 0 7 -6 3 -12 -6 -10 -4 -10 7 -1
16 16 33 17 23 1 -4 -7 -3 -8 5 -4 9 6 9 11 -1 24 -12 14 -10 14 10 3 12 -7
22 -8 22 -2 0 5 12 8 26 5 19 -3 24 -1 18 8 -6 10 -3 9 9 -1 14 -11 18 -11 23
3 3 9 10 16 16 16 5 0 6 -6 3 -12 -4 -7 0 -5 8 5 11 14 16 15 20 5 4 -9 6 -10
6 -1 1 7 8 10 16 7 8 -4 15 -1 15 5 0 6 4 11 10 11 5 0 6 -8 3 -17 -6 -15 -5
-16 9 -3 9 8 13 20 10 25 -3 6 2 4 11 -4 13 -11 17 -11 17 -1 0 8 3 11 6 7 4
-3 13 0 20 8 16 16 48 9 37 -8 -3 -6 -1 -7 6 -3 6 4 8 12 5 18 -5 7 2 9 19 6
17 -3 24 -1 20 5 -4 6 0 8 10 4 9 -3 19 -2 23 4 3 6 11 3 19 -8 13 -17 13 -17
12 2 -1 14 4 20 17 18 11 -1 26 6 34 15 7 9 11 11 7 5 -4 -8 0 -13 9 -13 9 0
16 5 16 11 0 8 5 7 16 -1 8 -8 14 -9 13 -4 -4 21 2 28 11 14 8 -12 10 -12 10
-1 0 11 3 11 17 0 9 -8 14 -9 10 -2 -5 7 2 15 15 19 37 12 48 13 48 2 0 -5 6
-3 14 5 8 8 30 13 50 12 19 -1 33 2 30 7 -5 8 10 12 35 9 8 -2 10 2 5 11 -6
11 -5 11 8 0 11 -9 18 -10 23 -2 3 5 15 10 26 10 11 0 18 3 16 8 -3 4 13 8 35
9 21 1 47 8 56 15 10 9 13 9 9 1 -5 -9 0 -8 19 2 14 7 35 12 46 10 15 -3 18 0
14 12 -5 13 -4 14 9 3 10 -8 15 -9 15 -2 0 6 7 9 15 6 9 -4 15 0 15 7 0 12 2
12 9 0 6 -9 11 -10 15 -2 4 6 12 9 17 6 5 -4 9 -1 9 5 0 8 6 8 20 0 16 -8 20
-8 18 2 -2 8 9 14 30 16 18 2 30 8 27 13 -4 5 2 9 12 10 10 0 13 3 6 6 -10 3
-9 9 3 21 12 11 13 17 5 20 -8 3 -6 9 6 19 10 8 12 12 6 8 -7 -3 -13 -1 -13 4
0 6 5 11 12 11 6 0 8 3 5 7 -4 3 -1 13 6 21 10 13 9 14 -3 7 -13 -8 -13 -7 -1
8 8 10 11 20 7 24 -3 3 1 17 10 31 9 13 11 21 5 18 -7 -5 -9 -1 -5 8 3 9 11
13 16 10 7 -5 7 0 0 12 -9 15 -6 22 11 32 12 7 15 11 6 9 -11 -4 -15 1 -14 16
1 12 9 23 18 25 10 2 15 8 11 13 -3 5 -11 6 -17 3 -7 -4 -1 6 13 22 15 17 18
23 6 14 -18 -14 -19 -14 -7 8 6 12 9 28 5 34 -5 7 -3 8 6 3 10 -6 12 -3 8 13
-4 12 -2 19 3 16 5 -3 7 5 5 18 -1 13 4 33 12 45 12 19 12 23 1 23 -9 1 -8 4
4 11 14 8 15 14 5 32 -10 20 -10 21 6 8 15 -12 17 -12 14 0 -2 8 -7 17 -13 21
-6 5 -5 8 3 8 6 0 12 11 12 25 0 14 6 25 13 25 9 0 8 3 -2 9 -11 7 -9 13 8 30
11 11 17 21 12 21 -5 0 -12 7 -15 16 -3 8 -2 12 3 9 5 -3 12 -1 16 5 3 5 1 10
-6 10 -6 0 -3 8 8 18 10 9 14 14 8 10 -14 -9 -13 27 0 39 4 5 5 2 0 -6 -5 -9
-4 -12 3 -8 5 4 9 19 7 33 -1 14 4 32 12 40 8 8 10 14 5 14 -11 0 -10 11 2 48
4 13 12 20 19 15 9 -5 9 -3 0 8 -8 9 -9 20 -3 29 6 8 10 25 10 38 0 16 4 21
13 16 8 -5 8 -2 -2 9 -10 12 -10 17 -2 17 8 0 10 8 6 19 -3 11 0 23 6 27 8 5
10 3 4 -7 -7 -12 -5 -12 6 -1 12 11 12 14 -1 22 -9 6 -10 10 -3 10 6 0 10 9 8
20 -2 11 3 27 11 35 9 8 11 15 6 15 -11 0 -10 11 2 48 4 13 12 20 19 16 8 -5
8 -2 0 7 -17 18 -16 32 2 26 11 -5 12 -1 4 20 -8 21 -7 24 6 19 12 -4 14 -2 5
13 -7 15 -6 20 6 25 12 5 14 10 5 19 -8 10 -7 19 4 33 8 10 14 24 15 29 0 6
-5 3 -10 -5 -5 -8 -10 -10 -10 -4 0 6 3 14 7 18 7 7 11 23 15 63 1 12 6 19 10
17 4 -3 8 8 8 25 0 16 6 32 13 34 9 4 9 6 0 6 -7 1 -10 8 -7 16 4 8 10 13 15
10 4 -3 6 4 4 16 -3 13 1 29 8 38 10 12 9 13 -3 6 -9 -5 -7 1 5 15 11 13 14
20 8 16 -7 -4 -13 -2 -13 3 0 6 5 11 11 11 8 0 7 5 -1 15 -11 13 -10 14 4 9 9
-3 16 -1 16 5 0 6 -5 11 -12 11 -6 0 -3 7 8 16 10 8 13 13 7 9 -19 -9 -16 6 5
22 9 8 11 12 5 8 -8 -4 -13 0 -13 10 0 9 4 14 9 10 5 -3 13 0 17 6 4 7 3 9 -4
5 -6 -3 -13 -2 -17 4 -3 5 -1 10 5 10 6 0 8 5 5 10 -3 6 -1 10 4 10 6 0 11 5
11 11 0 5 -6 7 -12 3 -7 -4 -4 2 6 14 12 14 14 22 7 22 -7 0 -9 5 -6 10 4 6
10 8 14 5 5 -2 8 22 7 55 0 34 -5 58 -11 57 -5 -1 -9 6 -7 16 2 11 -4 17 -15
18 -15 0 -15 2 -3 7 18 8 20 29 4 40 -6 4 -14 15 -17 26 -6 14 -4 17 10 12 12
-4 9 1 -7 15 -14 11 -19 18 -12 14 6 -3 12 -1 12 4 0 6 -5 11 -12 11 -6 0 -8
3 -5 7 4 3 2 12 -4 20 -9 10 -8 13 5 13 9 0 16 4 16 10 0 5 -6 7 -14 4 -8 -3
-17 0 -22 7 -4 8 -3 10 4 5 7 -4 12 -2 12 3 0 6 -6 11 -12 11 -9 0 -8 4 2 10
10 6 11 10 3 10 -8 0 -13 13 -13 30 0 17 -4 30 -9 30 -6 0 -9 12 -7 28 1 15
-5 33 -14 40 -12 11 -13 12 0 6 13 -7 13 -6 1 10 -13 15 -13 19 0 27 12 7 12
9 -2 9 -10 0 -15 8 -15 23 1 12 -4 21 -11 20 -8 -2 -9 6 -3 27 5 19 5 30 -1
30 -6 0 -7 5 -4 10 3 6 1 10 -6 10 -8 0 -8 4 -1 13 8 9 5 19 -8 37 -14 18 -16
29 -8 43 8 15 7 18 -3 12 -9 -6 -11 -2 -7 13 5 16 2 22 -10 22 -13 0 -12 3 4
14 19 14 19 14 -1 13 -16 -2 -19 3 -17 26 2 17 -4 37 -15 50 -14 18 -15 19 -1
9 15 -12 17 -11 15 7 0 11 -6 19 -12 18 -5 -1 -9 6 -7 17 2 13 -1 16 -10 10
-11 -6 -11 -5 0 8 10 12 10 18 1 23 -8 6 -7 10 2 16 12 7 12 9 0 9 -8 0 -11 7
-8 20 3 11 0 18 -7 17 -6 -1 -10 8 -10 21 1 12 -3 22 -8 22 -5 0 -6 5 -2 11 3
6 0 15 -7 20 -12 7 -11 9 1 9 13 0 13 1 0 10 -13 9 -13 11 0 20 13 8 13 10 -2
10 -10 0 -15 7 -13 18 1 9 -5 25 -13 35 -15 16 -14 17 3 11 17 -7 17 -5 -3 23
-14 20 -18 34 -12 38 6 4 4 12 -6 22 -12 13 -13 17 -2 24 10 7 8 9 -6 9 -15 0
-16 3 -6 15 7 8 8 15 3 15 -6 0 -10 10 -9 23 1 12 -5 28 -14 35 -8 8 -10 11
-4 8 5 -2 10 6 10 20 0 15 -5 23 -12 20 -8 -3 -10 3 -6 16 3 13 1 19 -5 15 -5
-3 -10 0 -10 8 0 8 4 12 9 9 14 -9 9 6 -7 23 -8 8 -12 19 -9 25 4 6 0 14 -7
19 -12 7 -11 9 1 9 13 0 13 2 1 9 -13 8 -13 12 0 27 13 16 12 17 -5 11 -14 -6
-17 -4 -12 8 3 8 0 15 -6 15 -7 0 -7 4 1 14 9 10 9 16 1 21 -6 4 -9 12 -7 18
2 7 -3 18 -12 25 -12 10 -13 15 -4 18 10 4 10 9 -1 20 -8 7 -12 23 -9 34 3 12
0 20 -7 20 -7 0 -10 12 -8 30 2 19 -3 34 -12 40 -12 8 -12 10 -1 10 11 0 11 3
1 15 -7 8 -10 22 -6 30 4 11 2 14 -6 9 -8 -5 -9 -2 -5 9 3 10 2 17 -3 17 -6 0
-9 3 -9 8 4 24 -2 42 -13 36 -7 -5 -9 -2 -5 8 4 12 1 14 -15 10 -12 -3 -19 -1
-15 4 3 6 -4 11 -16 11 -17 2 -19 0 -7 -7 8 -5 11 -10 6 -10 -5 0 -18 8 -29
18 -11 9 -17 11 -13 5 9 -16 -25 -5 -36 11 -5 7 -8 6 -8 -4 -1 -9 -6 -6 -16
10 -8 14 -13 17 -10 8 4 -15 2 -15 -31 -2 -19 9 -38 13 -41 10 -3 -3 -12 0
-20 7 -13 10 -14 9 -7 -3 8 -13 7 -13 -10 0 -10 8 -20 14 -22 13 -8 -7 -24 -2
-19 5 3 5 -1 9 -9 9 -8 0 -11 -5 -8 -10 4 -6 1 -7 -8 -1 -8 5 -18 9 -24 9 -5
1 -9 6 -8 12 1 6 -6 9 -17 6 -11 -3 -20 -10 -20 -16 0 -6 -3 -7 -6 -4 -4 4 -1
14 7 23 13 16 12 16 -8 5 -18 -9 -23 -9 -23 1 0 9 -3 9 -12 0 -12 -12 -53 3
-44 16 3 5 -4 9 -15 9 -18 2 -19 0 -7 -15 10 -13 8 -13 -9 2 -13 11 -31 16
-43 13 -14 -3 -20 0 -20 10 0 11 -7 14 -26 9 -18 -5 -24 -3 -19 5 6 8 2 8 -14
0 -17 -10 -20 -9 -14 5 5 14 3 15 -13 6 -14 -8 -23 -7 -36 5 -12 11 -18 12
-18 4 0 -7 -5 -9 -10 -6 -6 4 -8 10 -5 15 6 9 -21 7 -31 -3 -4 -3 -14 -2 -24
3 -10 5 -21 6 -25 2 -3 -4 -5 -1 -3 7 2 7 -3 16 -11 19 -8 2 -11 0 -8 -5 3 -5
0 -10 -8 -10 -8 0 -12 4 -10 8 3 4 -2 9 -10 13 -8 3 -15 0 -15 -6 0 -7 -4 -7
-12 -1 -7 6 -21 9 -31 8 -13 -3 -15 0 -8 9 8 9 3 12 -19 10 -17 -1 -30 3 -30
9 0 8 -3 8 -12 -1 -8 -8 -18 -7 -38 8 -17 12 -31 16 -40 10 -9 -6 -24 -1 -44
13 -28 19 -29 20 -22 2 6 -18 6 -18 -12 -2 -15 13 -21 14 -32 4 -8 -7 -10 -8
-7 -1 4 7 0 17 -8 24 -13 11 -14 10 -9 -4 5 -12 2 -15 -10 -10 -9 3 -13 11 -9
18 4 6 -2 4 -12 -4 -10 -8 -16 -10 -12 -3 4 6 3 14 -3 18 -5 3 -10 1 -10 -6 0
-8 -3 -9 -13 0 -8 6 -17 8 -20 4 -4 -3 -7 -1 -7 7 0 10 -3 10 -15 0 -10 -8
-15 -9 -15 -2 0 7 -7 9 -17 5 -10 -4 -14 -2 -10 4 4 6 0 14 -9 17 -8 3 -12 2
-9 -4 3 -6 1 -10 -4 -10 -6 0 -11 6 -11 13 0 8 -4 7 -10 -3 -5 -8 -10 -10 -10
-4 0 7 -7 15 -16 18 -8 3 -12 2 -9 -4 3 -6 -1 -7 -9 -4 -9 3 -16 11 -16 18 0
6 -5 4 -10 -4 -5 -8 -10 -10 -10 -3 0 6 -13 10 -29 9 -22 -1 -27 2 -23 13 4
10 2 12 -9 5 -21 -13 -38 -14 -46 -2 -3 6 -1 8 5 4 6 -3 13 -2 16 2 3 5 -7 8
-22 7 -15 -1 -33 2 -39 8 -9 6 -13 6 -13 -1 0 -6 -7 -9 -15 -6 -8 4 -12 11 -9
16 4 6 -3 5 -15 -1 -16 -9 -21 -9 -19 0 3 13 -20 20 -69 21 -18 1 -33 5 -33 9
0 5 -7 5 -17 2 -11 -4 -14 -3 -9 5 5 9 1 9 -18 2 -16 -6 -27 -6 -31 1 -4 5
-11 6 -17 3 -7 -5 -8 -2 -3 6 6 10 4 12 -8 7 -10 -3 -17 -2 -17 3 0 5 -7 6
-17 3 -12 -5 -14 -3 -8 8 8 12 6 12 -8 0 -14 -11 -20 -11 -41 2 -18 12 -26 13
-36 4 -10 -9 -11 -9 -6 1 5 8 0 12 -14 12 -14 0 -19 -4 -14 -12 6 -10 4 -10
-8 0 -13 10 -18 10 -24 1z m52 -168 c-4 -5 9 -8 26 -7 18 1 42 -5 52 -14 11
-8 17 -10 13 -4 -3 6 0 11 7 11 8 0 12 -6 9 -13 -4 -10 2 -11 26 -4 17 5 30 5
30 2 -3 -20 3 -23 18 -11 11 10 14 10 9 2 -4 -7 -3 -13 2 -13 5 0 9 -7 9 -15
0 -8 -4 -12 -8 -10 -4 3 -10 -2 -13 -11 -4 -10 -2 -13 7 -8 8 5 8 2 -2 -9 -7
-9 -17 -14 -22 -11 -5 3 -9 0 -9 -6 0 -6 -4 -9 -9 -6 -5 3 -8 -2 -7 -12 0 -10
-5 -16 -13 -14 -9 2 -11 -3 -7 -15 4 -9 4 -14 0 -11 -4 4 -15 3 -26 -3 -16 -9
-17 -13 -6 -27 10 -12 10 -14 1 -8 -8 4 -13 2 -13 -4 0 -6 -5 -8 -12 -4 -8 5
-9 2 -5 -10 5 -14 3 -17 -8 -12 -13 5 -19 -5 -17 -25 1 -4 -8 -5 -18 -2 -19 5
-25 16 -21 37 1 5 -6 3 -15 -5 -10 -8 -15 -9 -11 -3 4 7 0 17 -9 24 -12 11
-12 15 -2 22 10 7 10 8 -2 6 -19 -3 -59 30 -71 60 -5 12 -16 22 -26 22 -15 0
-16 2 -3 10 13 8 12 10 -4 10 -12 0 -16 5 -12 16 3 8 2 12 -3 9 -5 -3 -13 0
-17 6 -4 8 -3 9 4 5 8 -4 12 0 12 11 0 10 4 14 8 8 9 -13 35 -19 28 -6 -9 14
20 21 33 8 8 -8 11 -8 11 1 0 6 6 9 14 6 8 -3 17 0 22 7 4 7 3 10 -4 5 -6 -3
-13 -2 -16 3 -7 10 13 9 30 -2 7 -4 17 0 24 8 14 16 25 20 16 6z m466 -113
c15 4 19 2 13 -7 -6 -10 -3 -11 13 -2 15 8 23 7 33 -5 10 -12 14 -12 20 -2 6
9 10 8 15 -6 5 -14 9 -15 15 -4 7 10 9 11 9 0 0 -7 5 -10 10 -7 6 3 10 2 10
-4 0 -6 11 -6 31 -1 25 8 29 7 19 -4 -9 -11 -5 -14 20 -12 21 2 30 -2 31 -13
0 -11 2 -12 6 -3 7 18 33 15 50 -5 8 -10 12 -12 8 -6 -4 9 -1 11 12 6 25 -9
48 -33 33 -33 -7 0 -4 -8 7 -17 10 -10 14 -15 8 -11 -8 5 -11 0 -10 -13 1 -12
9 -25 18 -31 10 -5 14 -14 10 -21 -12 -20 -12 -37 0 -37 7 0 5 -5 -3 -10 -9
-6 -11 -10 -3 -10 7 0 10 -7 6 -17 -4 -11 -3 -14 5 -9 7 4 12 3 12 -3 0 -5 -5
-11 -11 -13 -5 -2 -7 -11 -4 -21 4 -9 10 -15 15 -12 4 2 5 -7 2 -22 -3 -15 -1
-23 4 -20 6 3 10 -3 10 -13 0 -10 -4 -16 -8 -14 -4 3 -8 1 -8 -5 0 -5 5 -11
11 -13 6 -2 12 -17 13 -33 1 -17 5 -36 10 -44 6 -10 5 -12 -2 -7 -7 4 -12 2
-12 -4 0 -6 -5 -8 -12 -4 -7 5 -9 2 -6 -8 4 -8 0 -15 -8 -15 -7 0 -10 5 -7 11
4 5 -9 -1 -27 -14 -18 -13 -30 -19 -26 -12 4 7 2 12 -3 12 -6 0 -11 -4 -11
-10 0 -5 -13 -10 -29 -10 -16 0 -31 -6 -35 -15 -3 -9 -12 -12 -22 -8 -10 4
-15 2 -11 -4 3 -5 0 -10 -8 -10 -8 0 -15 5 -15 11 -1 6 -8 0 -16 -14 -8 -14
-13 -18 -11 -9 3 9 -1 16 -8 16 -8 0 -13 -5 -12 -11 1 -6 -6 -10 -17 -8 -13 2
-16 -1 -10 -10 6 -10 4 -10 -9 1 -15 12 -17 11 -17 -4 0 -15 -2 -16 -17 -4
-14 12 -16 12 -11 -1 4 -12 -2 -15 -29 -14 -21 0 -37 -5 -40 -13 -4 -11 -11
-9 -31 9 -15 13 -22 16 -17 8 6 -10 4 -9 -6 2 -9 9 -20 14 -25 10 -5 -4 -3 0
4 9 10 14 9 17 -8 22 -11 3 -20 12 -20 21 0 9 -5 16 -12 16 -19 0 -47 31 -41
46 4 12 -7 18 -29 15 -4 0 -5 9 -3 21 3 11 2 18 -2 15 -7 -8 -33 18 -33 35 0
10 -3 9 -10 -2 -8 -12 -10 -10 -10 8 0 15 -4 21 -12 16 -8 -5 -9 -2 -4 12 4
10 4 16 1 12 -11 -10 -57 40 -49 53 4 8 3 9 -4 5 -7 -4 -12 -2 -12 4 0 6 -6 8
-12 5 -7 -4 -2 3 12 15 14 12 18 18 10 14 -8 -4 -4 4 10 18 34 35 45 50 53 71
4 10 11 15 17 12 5 -3 10 1 10 9 0 8 5 18 12 22 7 5 8 3 3 -6 -6 -9 -4 -11 4
-6 7 5 10 15 7 23 -3 8 -2 11 3 8 5 -3 12 4 16 15 4 11 11 17 17 14 7 -5 9 0
6 14 -3 12 -3 21 1 20 20 -2 31 3 25 14 -4 7 -3 8 4 4 12 -7 35 28 24 38 -3 4
1 4 11 0 11 -4 19 0 23 10 5 13 9 14 20 5 11 -9 14 -7 15 7 1 16 2 16 6 3 3
-12 11 -15 25 -11z m-882 -1 c0 20 42 5 65 -23 14 -16 24 -25 25 -20 0 6 12
-6 26 -25 14 -19 30 -33 35 -31 5 1 9 -7 9 -18 0 -11 5 -20 11 -20 5 0 7 -4 4
-10 -3 -5 3 -10 14 -10 12 0 21 -5 21 -11 0 -5 -6 -7 -12 -3 -9 5 -9 3 1 -9 7
-9 17 -14 22 -11 5 3 6 -3 2 -12 -4 -12 -3 -15 5 -10 7 4 12 2 12 -4 0 -6 4
-9 9 -5 5 3 11 -5 13 -17 2 -13 9 -22 16 -20 6 1 11 -4 10 -10 -2 -7 3 -12 10
-10 10 2 10 -2 1 -19 -10 -19 -9 -21 7 -15 18 6 18 5 0 -9 -10 -8 -23 -12 -29
-8 -6 3 -7 1 -3 -6 10 -15 -13 -43 -29 -37 -9 3 -11 -2 -7 -16 3 -14 1 -19 -6
-14 -8 5 -12 0 -12 -13 0 -11 -5 -23 -12 -27 -6 -4 -8 -3 -4 4 3 6 2 14 -4 17
-6 4 -10 3 -9 -2 3 -20 -2 -34 -11 -28 -6 4 -9 1 -8 -7 2 -7 -3 -12 -11 -10
-12 3 -12 0 -1 -13 11 -13 10 -15 -6 -9 -10 4 -16 4 -12 -1 4 -4 0 -14 -10
-22 -9 -8 -11 -12 -4 -8 6 3 12 4 12 1 0 -3 -15 -13 -32 -21 -18 -8 -26 -13
-17 -11 9 2 16 -2 16 -9 0 -7 -8 -10 -20 -7 -13 3 -18 1 -13 -6 3 -6 -3 -16
-14 -22 -12 -6 -19 -18 -16 -25 3 -9 0 -12 -10 -8 -8 3 -14 2 -13 -3 4 -21 -2
-26 -17 -13 -14 11 -18 10 -30 -6 -11 -15 -14 -16 -14 -3 0 10 -9 16 -26 16
-15 0 -30 6 -35 13 -7 12 -9 12 -9 0 0 -11 -4 -10 -16 5 -8 10 -12 12 -8 4 5
-11 1 -10 -13 3 -14 12 -23 15 -28 8 -3 -6 -12 -11 -18 -11 -7 0 -6 4 3 10 13
9 13 10 0 11 -8 1 -21 1 -29 0 -8 -2 -10 2 -5 10 5 8 2 11 -8 6 -9 -3 -21 0
-28 6 -10 9 -11 9 -6 -3 4 -8 1 -7 -8 4 -8 10 -22 16 -31 13 -8 -4 -15 -2 -15
4 0 6 -4 7 -10 4 -5 -3 -10 0 -10 7 0 9 -3 9 -10 -2 -8 -12 -10 -12 -10 5 0
17 -2 17 -10 5 -5 -8 -10 -10 -10 -4 0 6 -6 11 -12 11 -37 1 -58 16 -58 41 0
7 5 10 12 6 7 -4 8 -3 4 4 -11 18 -16 53 -7 47 11 -6 24 26 14 34 -13 10 -15
33 -2 25 9 -5 10 0 6 15 -3 15 0 24 10 28 12 5 12 7 1 14 -11 7 -10 11 2 19
13 9 13 11 0 20 -13 8 -12 10 3 10 15 0 16 3 7 20 -10 19 -6 25 15 20 6 -1 4
4 -2 11 -9 9 -10 16 -2 26 9 9 8 13 0 13 -7 0 -9 5 -6 10 4 6 11 7 17 4 7 -4
7 0 -1 13 -7 15 -6 25 4 40 8 11 11 23 7 27 -3 4 1 4 11 0 11 -4 17 -1 17 7 0
11 3 11 10 -1 6 -10 10 -11 10 -2 0 6 7 12 16 12 8 0 13 4 10 9 -5 7 11 8 32
2 8 -3 17 6 14 14 -2 6 2 4 9 -2 10 -10 16 -10 28 0 12 10 13 9 7 -3 -4 -8 0
-6 8 4 14 18 21 15 17 -6 -2 -13 6 -9 20 9 12 14 12 16 0 8 -10 -6 -12 -4 -6
4 5 9 11 9 17 3 7 -7 17 -7 30 1 15 10 21 9 28 -3 8 -13 10 -13 10 2 0 9 -6
18 -12 21 -7 3 6 3 30 2 31 -3 40 0 35 8 -4 7 0 6 10 -2 9 -7 17 -9 17 -4z
m-627 -150 c-5 -9 -3 -9 8 0 12 10 18 10 29 0 10 -9 11 -9 6 1 -4 7 -1 12 8
12 10 0 13 -6 9 -17 -4 -11 -3 -14 5 -9 13 8 6 -20 -11 -41 -9 -12 -3 -17 17
-14 5 1 4 -5 -4 -13 -15 -19 -24 -21 -14 -4 4 6 3 8 -4 5 -5 -4 -8 -16 -5 -27
3 -12 0 -20 -8 -20 -8 0 -5 -6 7 -16 10 -8 13 -13 7 -9 -8 4 -14 0 -14 -9 -1
-9 -3 -20 -4 -26 -1 -5 -3 -22 -4 -37 -1 -16 -13 -41 -27 -58 -15 -16 -24 -25
-21 -20 3 6 -1 16 -9 23 -9 8 -14 9 -14 2 0 -7 -6 -8 -19 0 -26 13 -44 13 -35
-2 4 -7 3 -8 -5 -4 -6 4 -8 12 -5 18 5 8 1 9 -10 5 -13 -5 -17 -3 -13 6 4 10
-2 13 -19 9 -15 -3 -24 0 -24 8 0 8 -9 11 -25 8 -15 -3 -22 -1 -18 5 4 6 -2 8
-15 5 -13 -4 -22 -1 -22 5 0 6 -3 7 -7 4 -3 -4 -12 1 -20 11 -8 9 -11 11 -7 3
5 -10 3 -12 -5 -6 -7 4 -10 16 -8 27 4 15 3 17 -8 8 -10 -8 -15 -8 -21 1 -4 8
-3 9 4 5 7 -4 12 -2 12 3 0 6 -5 11 -11 11 -5 0 -8 4 -4 9 3 5 -2 17 -11 25
-8 9 -11 16 -5 16 6 0 8 8 4 18 -5 15 -4 14 9 -2 12 -15 17 -16 23 -6 6 9 4
11 -6 5 -12 -7 -12 -5 -1 6 11 12 14 12 22 -1 8 -13 14 -8 12 11 -1 3 11 4 26
2 21 -4 24 -2 12 6 -9 7 -10 11 -3 11 6 0 15 -4 18 -10 4 -6 13 -5 25 2 10 7
16 17 12 23 -3 6 0 6 9 -1 15 -12 51 -15 44 -3 -3 4 2 10 11 13 8 3 13 2 9 -3
-8 -13 23 -7 37 7 16 16 41 15 33 0 -4 -7 1 -4 9 6 12 15 16 16 16 5 0 -12 2
-12 9 1 6 8 7 18 4 24 -3 5 -1 6 6 2 6 -4 8 -13 4 -19z m2072 4 c-3 -5 -1 -13
5 -16 6 -4 9 -1 8 6 -2 7 7 14 19 15 12 1 20 -3 17 -8 -3 -4 -10 -5 -16 -2 -7
4 -8 2 -4 -4 5 -9 13 -9 27 -2 11 6 19 7 19 1 0 -5 9 -7 20 -4 13 3 20 0 20
-8 0 -11 2 -11 10 1 8 12 10 12 10 -5 0 -17 2 -17 10 -5 8 12 10 12 10 1 0
-11 3 -11 15 -1 13 11 14 10 8 -6 -6 -16 -5 -17 9 -6 12 9 18 10 23 2 4 -6 14
-9 22 -5 14 5 14 3 2 -11 -13 -16 -12 -16 9 -5 23 12 47 7 37 -9 -3 -5 7 -5
23 0 16 4 35 4 43 0 7 -5 17 -6 23 -3 5 3 6 1 2 -6 -4 -6 -1 -14 8 -17 8 -3
12 -12 9 -21 -5 -12 -7 -12 -15 -1 -6 9 -8 6 -6 -12 2 -17 -1 -24 -10 -22 -8
1 -11 -2 -7 -8 4 -6 -1 -18 -11 -26 -18 -13 -18 -14 1 -8 18 5 18 4 2 -6 -9
-6 -22 -8 -27 -5 -6 3 -10 1 -10 -6 0 -7 -3 -9 -7 -6 -3 4 -12 2 -20 -5 -7 -6
-16 -8 -20 -5 -3 4 -12 -1 -20 -11 -9 -10 -11 -11 -7 -2 6 12 5 13 -7 3 -12
-10 -18 -10 -28 0 -10 9 -11 8 -5 -8 4 -11 4 -17 -1 -13 -4 4 -14 3 -22 -4 -7
-6 -16 -8 -20 -5 -3 4 -12 -1 -20 -11 -14 -16 -14 -16 -9 2 5 15 4 17 -7 8 -8
-7 -18 -8 -23 -4 -5 4 -6 3 -2 -2 4 -5 -4 -15 -18 -23 -35 -17 -39 -17 -23 4
8 9 10 14 4 11 -5 -3 -16 0 -23 8 -8 9 -9 14 -2 14 6 0 4 7 -5 16 -9 10 -12
21 -7 28 12 16 9 35 -8 46 -13 9 -13 10 0 10 13 0 13 1 0 10 -8 5 -11 10 -6
10 5 0 3 7 -4 15 -7 9 -8 15 -2 15 5 0 8 9 5 21 -4 16 -8 17 -14 7 -5 -7 -9
-8 -9 -2 0 5 6 16 13 23 7 8 7 11 1 8 -8 -5 -11 5 -11 28 1 22 6 35 15 35 7 0
11 -4 7 -9z m-2591 -157 c6 -10 18 -25 26 -32 8 -7 10 -11 3 -8 -7 4 -9 -1 -6
-14 3 -11 11 -20 19 -20 8 0 11 -8 9 -20 -2 -11 0 -18 6 -15 9 6 13 -8 10 -33
-1 -7 2 -12 6 -11 4 1 15 1 23 0 13 -1 13 -2 0 -11 -13 -8 -12 -10 4 -10 12 0
16 -5 13 -14 -4 -10 -1 -13 9 -9 8 3 22 -1 31 -8 14 -12 16 -12 8 1 -7 12 -6
13 7 3 8 -7 17 -10 20 -7 3 3 9 0 14 -7 5 -8 3 -10 -6 -4 -9 5 -11 4 -6 -4 6
-9 11 -9 24 1 13 11 14 11 7 -1 -6 -11 -4 -13 8 -8 10 3 17 2 17 -4 0 -6 5 -7
10 -4 6 3 10 0 11 -7 0 -10 2 -10 6 -1 3 10 8 9 20 -2 8 -8 19 -13 24 -10 5 4
9 1 9 -6 0 -8 5 -7 17 2 9 8 14 9 11 4 -4 -6 2 -16 13 -23 15 -9 19 -9 19 0 0
6 6 3 14 -7 13 -18 51 -32 41 -14 -4 5 1 6 9 3 9 -3 16 -10 16 -16 0 -5 4 -7
9 -4 5 3 12 -1 15 -10 3 -8 2 -12 -4 -9 -6 3 -10 1 -10 -4 0 -6 4 -11 9 -11 5
0 7 -9 4 -20 -3 -11 -9 -18 -12 -15 -4 2 -8 -3 -8 -11 0 -9 6 -13 16 -9 15 5
15 4 0 -7 -9 -7 -14 -19 -11 -27 3 -9 0 -11 -8 -6 -9 6 -9 3 -1 -14 10 -18 9
-21 -6 -21 -10 0 -14 -4 -8 -8 17 -12 16 -32 -2 -32 -15 0 -14 -2 3 -15 12 -9
14 -14 5 -15 -8 0 -11 -7 -8 -20 3 -13 0 -20 -10 -20 -8 0 -11 -5 -8 -10 4 -6
11 -7 17 -4 7 4 8 2 4 -5 -4 -6 -12 -9 -17 -6 -5 4 -9 1 -9 -4 0 -6 6 -11 13
-11 7 0 8 -3 2 -8 -12 -9 -18 -30 -17 -59 1 -13 -2 -23 -7 -23 -5 0 -8 -15 -7
-34 1 -27 -2 -33 -16 -31 -10 2 -18 0 -18 -5 0 -5 -7 -6 -17 -3 -12 5 -14 3
-8 -8 8 -12 6 -12 -8 0 -9 7 -17 9 -17 3 0 -5 -9 -12 -20 -15 -11 -3 -20 0
-20 6 0 9 -3 8 -8 0 -4 -7 -18 -11 -31 -8 -16 3 -21 0 -18 -9 4 -10 0 -12 -14
-9 -10 3 -16 10 -13 17 3 6 -3 0 -14 -13 -14 -18 -21 -21 -27 -11 -6 10 -11 9
-20 -4 -12 -15 -13 -15 -19 0 -5 13 -9 14 -21 4 -8 -6 -20 -8 -26 -4 -9 5 -10
2 -5 -12 6 -15 5 -16 -5 -7 -10 10 -16 10 -28 0 -12 -10 -13 -9 -7 2 5 8 -3 6
-20 -5 -15 -11 -25 -13 -21 -6 5 6 4 12 -2 12 -6 0 -11 -5 -11 -10 0 -7 -7 -7
-20 0 -11 6 -24 8 -29 5 -5 -3 -7 5 -3 17 3 14 1 19 -6 14 -8 -5 -10 -2 -6 8
3 9 1 16 -5 16 -6 0 -8 7 -5 15 4 8 2 15 -4 15 -5 0 -8 11 -7 24 2 19 -1 23
-12 19 -13 -5 -13 -3 -4 15 9 17 9 22 0 22 -6 0 -9 7 -5 15 3 9 0 15 -9 15 -8
0 -15 5 -15 11 0 5 4 8 8 5 5 -3 9 1 9 9 0 8 -4 12 -9 9 -4 -3 -8 2 -8 10 0 9
-6 16 -12 16 -9 0 -8 4 2 10 12 8 12 10 -5 10 -17 0 -17 2 -5 10 11 7 11 10 2
10 -7 0 -10 5 -7 10 3 6 1 10 -6 10 -8 0 -8 4 -1 13 8 10 5 20 -12 40 -13 15
-26 24 -30 20 -3 -3 -6 -1 -6 6 0 8 -7 10 -22 5 -21 -6 -22 -5 -8 11 8 11 10
16 3 12 -7 -4 -17 0 -23 10 -11 17 -11 17 -6 -1 6 -16 4 -17 -9 -6 -8 7 -13
16 -10 20 2 3 -9 6 -25 5 -16 -1 -27 2 -25 5 3 4 -3 14 -12 21 -14 12 -16 12
-8 -1 7 -12 6 -13 -7 -3 -8 7 -17 11 -20 8 -2 -3 -5 2 -5 10 0 8 4 12 9 9 5
-3 7 6 4 20 -3 14 0 26 5 26 5 0 9 5 9 11 0 5 -4 7 -10 4 -5 -3 -10 -1 -10 4
0 6 7 11 15 11 8 0 15 5 15 11 0 5 -6 7 -12 3 -10 -6 -10 -5 -1 8 7 8 10 18 7
21 -3 3 -2 12 2 19 5 7 9 18 10 23 0 6 2 16 2 23 1 8 7 10 15 6 8 -5 8 -2 -2
9 -12 15 -11 17 3 17 13 0 14 5 6 26 -9 22 -8 25 5 20 13 -4 14 -2 5 14 -8 15
-6 20 10 25 11 4 18 10 15 15 -3 5 -1 11 4 14 5 4 13 1 17 -5 5 -8 3 -9 -6 -4
-9 6 -11 4 -5 -5 6 -10 13 -8 28 11 15 18 19 19 13 5 -5 -14 -3 -16 6 -9 7 6
21 9 31 8 9 -2 15 0 12 5 -8 13 22 19 35 7 10 -9 11 -9 6 0 -3 6 -2 14 4 18 5
3 10 2 10 -4 0 -6 7 -8 15 -5 8 4 12 11 8 18 -4 6 2 4 12 -4 10 -8 16 -10 12
-4 -9 15 15 24 48 18 15 -3 24 -1 21 5 -3 5 2 8 11 7 9 -2 22 -11 27 -22z
m3182 6 c5 1 15 7 23 13 11 9 13 9 8 0 -4 -6 -3 -14 3 -18 5 -3 10 -1 10 6 0
9 4 9 15 -1 8 -6 18 -9 24 -6 5 3 11 -1 15 -9 8 -21 27 -19 19 3 -5 15 -4 15
9 -1 7 -10 20 -17 28 -15 8 2 14 -2 13 -8 -1 -7 6 -10 17 -7 11 3 20 10 20 16
0 6 3 7 6 4 4 -4 1 -14 -7 -23 -13 -16 -12 -16 8 -6 16 9 24 9 29 1 4 -8 9 -7
15 2 7 11 9 11 9 1 0 -8 5 -10 12 -6 8 5 9 2 4 -11 -5 -14 -4 -15 7 -7 10 8
13 5 15 -16 1 -15 7 -28 12 -30 6 -2 10 -8 10 -13 0 -6 -6 -7 -12 -3 -10 6
-10 4 0 -7 6 -7 12 -23 12 -36 0 -13 4 -23 9 -23 5 0 11 -7 14 -14 4 -11 1
-13 -10 -9 -14 5 -13 1 5 -24 16 -23 18 -33 10 -41 -9 -9 -9 -12 1 -12 9 0 11
-8 8 -21 -4 -15 -2 -19 9 -15 11 4 12 2 4 -14 -13 -25 -13 -33 3 -24 6 4 4 -2
-6 -14 -11 -12 -25 -18 -35 -15 -10 4 -13 2 -8 -5 4 -7 1 -12 -9 -12 -10 0
-13 -5 -9 -12 5 -9 2 -9 -9 1 -15 12 -17 11 -17 -2 0 -10 -6 -14 -15 -11 -8 4
-15 1 -15 -6 0 -7 -8 -10 -19 -7 -14 3 -18 1 -14 -10 4 -10 0 -13 -12 -11 -10
2 -20 -4 -22 -12 -4 -13 -3 -13 7 0 10 13 11 13 7 0 -2 -8 -12 -14 -22 -12
-12 3 -16 -1 -12 -12 3 -8 1 -18 -5 -22 -7 -5 -8 -2 -3 6 5 9 4 11 -4 6 -9 -6
-9 -11 -1 -21 8 -10 8 -15 0 -20 -6 -4 -9 -13 -6 -21 3 -8 0 -13 -7 -11 -7 1
-11 -6 -9 -17 2 -11 -1 -15 -7 -11 -8 4 -8 -2 -1 -19 7 -20 6 -24 -5 -19 -10
3 -15 -1 -16 -13 -1 -11 -2 -23 -4 -29 -1 -5 -3 -16 -3 -23 -1 -7 -7 -10 -14
-6 -7 4 -8 3 -4 -5 4 -6 2 -18 -4 -26 -10 -12 -10 -15 1 -15 8 0 6 -6 -7 -16
-10 -8 -13 -13 -7 -9 14 7 8 -20 -10 -42 -5 -7 -6 -13 -2 -13 4 0 2 -7 -5 -15
-13 -15 -35 -21 -26 -7 3 4 -8 7 -25 6 -16 -1 -29 3 -29 8 0 6 -6 5 -15 -2
-11 -9 -15 -9 -15 -1 0 7 -4 10 -9 6 -5 -3 -12 -1 -15 4 -3 4 -19 7 -36 5 -16
-2 -30 0 -30 5 0 4 -7 8 -15 8 -8 0 -15 -5 -15 -11 0 -6 -4 -5 -9 2 -4 8 -11
13 -15 13 -20 -2 -65 13 -60 20 3 5 -2 6 -10 3 -9 -3 -13 -10 -10 -15 3 -5 -2
-6 -10 -3 -9 3 -14 9 -11 14 2 4 -7 5 -20 2 -16 -3 -25 0 -25 9 0 10 -3 10
-11 2 -9 -9 -18 -8 -35 3 -13 9 -26 16 -31 17 -4 1 -6 10 -5 20 2 9 -3 17 -10
17 -8 0 -9 3 -3 8 13 9 19 35 6 28 -5 -4 -12 -2 -16 4 -3 5 -1 10 6 10 7 0 4
7 -7 15 -19 15 -19 15 1 8 17 -6 18 -4 8 9 -7 8 -10 18 -6 21 3 4 1 7 -5 7 -7
0 -12 5 -12 11 0 5 6 7 13 3 9 -6 9 -4 1 7 -6 8 -14 22 -17 31 -4 13 -2 16 11
12 15 -5 15 -4 -1 6 -9 6 -15 15 -12 21 4 5 2 9 -3 9 -6 0 -13 7 -16 16 -3 8
-2 12 3 9 5 -3 12 -1 16 5 3 5 2 10 -4 10 -5 0 -8 9 -6 21 4 18 2 19 -12 7
-15 -12 -15 -11 -5 9 7 12 9 24 5 26 -5 3 -9 30 -11 60 -2 43 0 56 13 61 11 4
14 2 10 -7 -4 -6 0 -4 8 6 10 12 17 14 22 8 3 -6 12 -11 18 -10 9 0 9 2 0 6
-7 2 -13 9 -13 14 0 4 7 6 15 3 8 -4 15 -2 15 4 0 5 10 9 23 8 13 -1 21 4 19
12 -1 8 2 11 7 7 12 -7 62 5 57 14 -2 3 7 7 20 7 15 1 22 -2 18 -10 -3 -6 4 0
16 14 12 14 19 19 15 12 -4 -7 9 -4 30 8 20 11 33 15 29 8 -6 -10 -5 -11 8 -1
8 7 19 9 23 5 5 -4 5 1 2 10 -4 12 -2 15 8 12 16 -7 48 20 37 30 -4 4 4 16 18
28 14 11 19 17 13 13 -7 -3 -13 -1 -13 4 0 6 5 11 10 11 6 0 10 7 10 16 0 9 5
12 13 8 6 -4 9 -4 5 0 -9 11 12 67 23 60 5 -3 9 5 9 18 0 16 3 19 9 10 4 -8
12 -13 17 -12z m-1593 -173 c-4 -7 1 -6 10 2 15 12 17 12 11 -4 -5 -13 -4 -16
4 -11 8 5 12 -1 12 -15 0 -19 2 -20 17 -8 11 10 14 10 9 2 -4 -8 -2 -13 6 -13
9 0 9 -3 -2 -10 -13 -8 -12 -10 3 -10 10 0 15 -4 12 -10 -3 -5 1 -10 10 -10 9
0 14 -4 11 -8 -3 -5 4 -14 14 -22 10 -8 17 -17 14 -22 -3 -4 2 -8 10 -8 10 0
16 -9 16 -21 0 -17 3 -19 14 -10 12 10 14 8 12 -12 -2 -20 1 -24 18 -21 12 3
15 2 8 -2 -8 -4 -6 -11 10 -25 13 -11 16 -17 7 -14 -8 3 -23 -3 -33 -14 -10
-11 -23 -18 -27 -15 -5 3 -9 0 -9 -7 0 -8 -5 -7 -17 2 -10 9 -14 9 -10 2 5 -7
-1 -17 -14 -23 -15 -8 -19 -9 -15 -1 4 6 3 11 -2 11 -6 0 -13 -7 -16 -16 -4
-10 -14 -14 -26 -11 -11 3 -20 0 -20 -6 0 -6 -3 -7 -7 -4 -3 4 -12 2 -20 -4
-9 -9 -13 -8 -13 0 0 6 -5 11 -11 11 -5 0 -7 -4 -4 -10 3 -5 1 -10 -4 -10 -6
0 -11 4 -11 10 0 5 -6 7 -14 4 -7 -3 -21 2 -29 11 -9 9 -22 15 -29 14 -27 -3
-39 1 -32 12 5 8 1 8 -14 0 -15 -8 -23 -8 -28 1 -5 7 -3 8 6 3 9 -5 11 -4 6 4
-4 6 -12 8 -18 5 -6 -4 -15 0 -20 7 -7 11 -11 11 -15 1 -7 -18 -23 -4 -16 15
5 12 3 14 -7 8 -8 -5 -11 -3 -8 6 3 8 11 13 17 12 6 -2 10 0 10 5 -3 20 2 32
14 30 6 -2 11 3 10 10 -2 6 2 12 7 12 6 0 9 6 8 13 -2 6 5 11 14 11 10 -1 15
2 12 7 -3 5 1 9 8 9 9 0 9 3 -2 10 -13 8 -13 10 2 10 9 0 20 5 24 12 5 7 3 8
-6 3 -9 -5 -11 -4 -6 3 4 7 14 12 22 12 8 0 12 5 9 10 -3 6 -1 10 5 10 7 0 10
7 7 14 -4 10 -1 13 9 9 7 -3 14 0 14 7 0 6 4 8 10 5 6 -3 7 1 4 9 -4 11 0 16
11 16 9 0 14 4 10 9 -3 5 3 11 12 13 24 6 35 -1 26 -15z m-1163 -127 c0 -5 -2
-10 -4 -10 -3 0 -8 5 -11 10 -3 6 -1 10 4 10 6 0 11 -4 11 -10z m720 -60 c0
-5 -2 -10 -4 -10 -3 0 -8 5 -11 10 -3 6 -1 10 4 10 6 0 11 -4 11 -10z m-476
-43 c-5 -8 -3 -8 7 1 17 16 24 15 45 -5 18 -19 48 -27 38 -11 -4 6 2 5 15 -1
11 -7 21 -9 21 -5 0 4 9 -3 19 -15 14 -16 21 -18 24 -9 4 10 8 10 16 -2 6 -8
11 -11 11 -6 0 5 9 1 20 -9 20 -18 21 -18 14 1 -6 18 -6 18 7 2 8 -10 28 -19
46 -20 17 -1 29 -6 27 -10 -3 -4 1 -8 9 -8 22 0 28 -37 8 -52 -15 -12 -15 -11
-1 6 9 12 10 17 2 12 -6 -4 -19 -21 -28 -39 -19 -35 -39 -58 -46 -51 -3 2 -11
-2 -18 -11 -11 -13 -10 -15 6 -10 10 4 6 -1 -9 -10 -16 -9 -25 -21 -21 -27 5
-8 1 -9 -10 -5 -14 6 -17 3 -12 -9 6 -15 4 -15 -11 -3 -11 9 -14 10 -9 2 4 -8
2 -13 -4 -13 -6 0 -8 -5 -4 -11 4 -8 0 -8 -15 0 -18 10 -21 9 -22 -6 0 -15 -2
-15 -7 -3 -10 22 -33 24 -25 2 6 -15 5 -16 -12 -2 -15 12 -17 12 -10 1 6 -11
4 -13 -8 -8 -9 3 -19 3 -21 -2 -3 -4 -15 -7 -28 -6 -13 1 -26 -5 -30 -14 -5
-13 -7 -12 -7 4 -1 17 -3 17 -11 5 -6 -9 -10 -11 -10 -3 0 7 -7 10 -17 6 -10
-3 -15 -3 -11 2 4 4 3 14 -2 21 -8 8 -6 17 5 28 15 15 15 16 -2 17 -17 1 -17
2 0 6 9 2 15 9 11 14 -3 6 -1 16 6 24 7 9 8 15 1 20 -7 4 -5 15 7 33 9 14 12
23 7 20 -6 -4 -11 2 -11 12 0 13 4 16 11 10 8 -7 12 -5 12 5 0 8 -5 15 -10 15
-5 0 -4 6 2 14 6 8 11 18 10 22 -1 5 -1 22 0 38 1 21 5 27 17 22 10 -4 13 -2
7 7 -11 18 -13 38 -2 31 5 -3 6 -11 3 -17z m1780 1 c-5 -8 -1 -7 10 2 16 13
20 12 32 -5 10 -13 11 -21 4 -23 -6 -2 -3 -10 7 -19 17 -14 17 -14 -1 -9 -16
6 -17 4 -6 -9 7 -8 17 -12 23 -8 6 4 7 1 1 -8 -15 -24 -13 -39 4 -40 11 0 13
-2 4 -6 -10 -4 -10 -8 -1 -19 9 -11 8 -14 -7 -14 -18 -1 -18 -1 -1 -11 9 -6
15 -14 12 -20 -4 -5 0 -9 7 -9 9 0 9 -3 -2 -10 -10 -6 -11 -10 -2 -10 6 0 12
-7 12 -16 0 -8 -4 -12 -10 -9 -6 3 -7 -1 -4 -9 3 -9 11 -13 16 -10 6 4 4 -4
-3 -17 -11 -21 -10 -22 2 -12 12 10 14 7 13 -20 -1 -18 -3 -34 -4 -37 -1 -3
-2 -8 -1 -12 0 -4 -6 -5 -14 -1 -13 5 -13 7 2 20 17 13 16 13 -4 4 -12 -6 -24
-16 -26 -23 -3 -8 -6 -6 -6 5 -1 13 -8 17 -28 14 -17 -2 -33 2 -41 12 -11 14
-11 14 -6 -1 6 -17 -18 -20 -33 -3 -5 4 -1 5 7 0 9 -5 12 -5 7 1 -8 9 -35 13
-84 15 -13 1 -20 5 -17 10 3 5 0 9 -6 9 -16 0 -40 26 -32 34 3 4 -1 4 -11 0
-12 -4 -17 -1 -17 13 0 24 -35 58 -50 48 -6 -3 -10 -3 -9 2 4 22 -2 43 -11 38
-5 -3 -10 1 -10 10 0 9 -4 14 -9 11 -11 -7 -20 14 -13 31 2 7 8 10 13 7 5 -3
9 0 9 6 0 6 5 8 10 5 6 -3 10 -1 10 6 0 8 4 8 15 -1 13 -11 14 -10 10 2 -4 11
2 15 25 15 18 0 36 6 41 14 5 8 9 10 9 5 0 -5 6 -3 13 3 8 6 17 8 20 4 4 -3 7
-1 7 7 0 10 4 10 17 -1 11 -10 14 -10 9 -1 -4 7 -2 12 4 12 6 0 8 5 4 11 -4 8
0 8 15 0 18 -10 21 -9 21 6 0 15 2 16 11 3 9 -13 12 -13 22 3 13 19 32 24 21
5z m-652 -50 c-7 -7 -12 -8 -12 -2 0 6 3 14 7 17 3 4 9 5 12 2 2 -3 -1 -11 -7
-17z m-2411 -51 c-10 -9 -11 -8 -5 6 3 10 9 15 12 12 3 -3 0 -11 -7 -18z m420
-24 c13 -16 12 -17 -3 -4 -10 7 -18 15 -18 17 0 8 8 3 21 -13z m-246 -43 c-3
-5 3 -10 15 -10 12 0 28 -7 37 -15 8 -8 19 -13 24 -10 5 4 9 1 9 -5 0 -6 5 -8
13 -4 7 5 6 0 -3 -11 -9 -11 -10 -16 -2 -11 7 4 12 1 12 -9 0 -10 -5 -13 -12
-9 -7 4 -8 3 -4 -4 4 -6 14 -8 24 -5 9 3 14 3 10 -2 -4 -4 -2 -15 5 -23 10
-13 9 -15 -8 -8 -17 6 -16 3 5 -20 14 -15 18 -24 10 -20 -8 4 -4 -3 10 -15 19
-17 20 -21 6 -15 -16 5 -17 4 -7 -8 7 -8 9 -21 5 -27 -4 -8 -3 -9 4 -5 11 7
16 -7 15 -41 -1 -7 3 -13 8 -13 11 0 12 -34 2 -44 -5 -4 -8 -13 -8 -19 0 -7
-4 -12 -10 -12 -5 0 -16 -4 -22 -8 -9 -6 -11 -3 -7 10 5 17 5 17 -9 0 -10 -12
-17 -15 -22 -7 -5 8 -11 5 -21 -7 -9 -13 -13 -14 -14 -4 0 9 -4 10 -12 3 -7
-5 -24 -9 -38 -8 -14 1 -30 -5 -37 -14 -9 -10 -12 -11 -13 -2 0 6 -5 12 -11
12 -5 0 -8 -4 -5 -9 7 -11 -13 -9 -33 3 -11 7 -13 5 -8 -7 4 -10 2 -14 -6 -11
-16 6 -19 41 -5 50 6 4 5 10 -3 15 -10 6 -11 9 -1 9 6 0 12 8 12 18 0 10 6 24
13 31 10 11 10 13 0 7 -20 -11 -15 12 7 34 11 11 16 20 11 20 -6 0 -9 9 -8 20
1 11 5 20 10 20 5 0 7 7 3 15 -3 8 0 15 6 15 7 0 7 4 -1 14 -9 11 -9 16 0 22
8 5 10 3 4 -7 -7 -12 -5 -12 6 -1 12 11 12 14 0 21 -11 7 -10 11 5 20 13 7 15
10 5 11 -11 0 -10 4 5 16 10 8 14 13 7 10 -7 -4 -11 1 -10 13 1 16 4 18 16 8
12 -10 13 -9 7 1 -8 13 -2 42 9 42 4 0 3 -4 0 -10z m1640 -10 c-3 -5 7 -8 25
-5 16 2 30 -1 30 -6 0 -5 9 -9 20 -9 11 0 20 -6 21 -12 0 -10 2 -10 6 0 2 6 9
12 14 12 6 0 7 -4 4 -10 -4 -6 5 -10 20 -10 18 0 24 -4 19 -12 -5 -10 -4 -10
6 -1 10 9 16 8 27 -3 8 -8 19 -12 24 -9 5 4 9 1 9 -6 0 -8 4 -8 15 1 13 11 14
10 9 -3 -4 -12 -1 -14 15 -10 12 3 21 1 21 -6 0 -6 7 -11 16 -11 9 0 12 5 8
13 -4 7 -3 9 2 4 5 -5 9 -14 9 -20 0 -5 6 -12 14 -15 8 -3 11 0 8 5 -3 5 0 10
8 10 8 0 12 -4 10 -8 -3 -3 4 -9 15 -12 11 -3 18 -1 15 3 -3 5 -1 11 5 15 5 3
10 0 10 -7 0 -10 2 -10 8 -1 5 7 20 14 34 15 15 1 24 7 21 12 -4 5 1 7 10 3
10 -3 17 -2 17 4 0 6 5 7 10 4 6 -4 17 -1 25 5 8 6 20 8 26 4 8 -5 9 -3 5 5
-6 8 -2 11 10 9 11 -2 18 2 17 9 -2 7 4 10 12 7 9 -4 23 0 32 7 12 10 15 10 9
2 -12 -20 1 -15 25 10 14 14 20 16 16 6 -3 -9 0 -16 8 -16 7 0 11 6 8 12 -2 7
3 15 12 19 10 4 14 2 9 -5 -4 -8 1 -9 15 -4 21 6 56 -16 44 -29 -4 -3 1 -6 10
-6 9 0 17 -7 17 -16 0 -9 9 -18 20 -21 16 -4 18 -8 9 -19 -7 -8 -9 -17 -5 -21
3 -3 6 -1 6 5 0 9 5 9 19 0 11 -7 17 -16 14 -22 -4 -5 1 -7 11 -3 11 4 15 3
11 -4 -7 -10 31 -49 48 -49 5 0 3 -8 -4 -17 -9 -10 -9 -14 -2 -10 7 5 17 -2
25 -17 7 -14 16 -25 21 -25 4 -1 12 -1 17 -1 6 0 10 -7 10 -16 0 -8 5 -12 10
-9 6 3 10 2 10 -3 0 -6 13 -9 29 -8 22 1 27 -2 23 -13 -4 -10 -2 -12 9 -5 20
12 39 14 39 3 0 -5 11 -9 23 -9 13 0 27 -3 31 -7 3 -4 17 -8 29 -10 17 -2 19
-1 7 6 -8 5 -18 7 -24 4 -5 -3 -6 -1 -2 5 5 8 13 9 25 2 10 -5 22 -6 26 -2 5
4 6 0 2 -10 -5 -13 0 -15 24 -11 17 2 37 -1 45 -8 11 -9 14 -9 14 2 0 12 2 12
9 0 5 -7 14 -10 20 -7 6 4 11 2 11 -4 0 -7 7 -7 23 1 19 11 20 10 9 -3 -10
-13 -10 -17 2 -21 9 -3 13 -16 12 -31 -2 -14 1 -26 5 -26 5 0 9 -5 9 -11 0 -5
-6 -7 -12 -3 -10 6 -10 4 0 -7 15 -17 16 -33 0 -23 -7 4 -2 -6 9 -22 13 -19
18 -35 14 -43 -5 -7 -6 -22 -3 -33 4 -15 7 -16 13 -6 6 9 8 6 6 -9 0 -12 -4
-20 -7 -18 -4 2 -7 -2 -7 -10 0 -8 3 -13 6 -11 3 2 12 -2 19 -10 11 -12 10
-14 -3 -14 -18 0 -20 -16 -3 -26 7 -5 8 -2 3 7 -5 8 -4 10 0 6 12 -10 15 -38
4 -32 -14 9 3 -29 20 -43 13 -11 13 -12 1 -7 -12 5 -12 4 1 -7 8 -7 18 -21 22
-30 4 -11 13 -15 26 -11 13 3 21 1 21 -6 0 -7 -6 -9 -12 -5 -7 4 -4 -2 7 -13
11 -11 27 -18 35 -15 8 3 12 2 9 -2 -8 -8 31 -50 56 -60 11 -4 15 -12 11 -22
-6 -15 -4 -15 11 -3 11 9 14 10 9 2 -4 -8 -1 -13 9 -13 9 0 13 -4 10 -10 -3
-5 1 -10 9 -10 9 0 16 -7 16 -17 0 -9 3 -14 6 -10 11 11 33 -17 23 -30 -7 -7
-6 -14 2 -19 8 -5 9 -3 4 6 -5 8 -4 11 3 6 12 -7 5 -36 -9 -36 -5 0 -9 -11 -9
-25 0 -14 -6 -25 -12 -25 -9 0 -8 -4 2 -10 8 -5 10 -10 4 -10 -6 0 -10 -13 -9
-30 1 -23 -1 -27 -11 -19 -9 8 -12 4 -10 -15 2 -15 -1 -26 -5 -26 -5 0 -8 -6
-7 -12 2 -7 -2 -12 -7 -11 -7 1 -10 -15 -9 -38 1 -31 -2 -39 -13 -35 -8 3 -11
1 -8 -4 3 -6 0 -10 -7 -10 -8 0 -9 -3 -3 -8 12 -9 19 -36 7 -28 -5 3 -8 -10
-8 -28 1 -19 4 -32 7 -30 4 2 10 -3 13 -12 4 -9 2 -13 -5 -8 -6 3 -3 -6 7 -22
11 -15 13 -25 7 -21 -9 6 -11 3 -7 -7 3 -9 10 -13 15 -10 5 3 6 -3 2 -12 -5
-13 -3 -15 8 -9 11 7 11 5 -1 -10 -8 -10 -10 -16 -3 -12 16 10 22 -14 11 -37
-7 -12 -7 -16 1 -12 5 4 15 -3 21 -15 10 -17 9 -20 -2 -14 -7 3 -4 -1 6 -9 12
-9 14 -16 7 -16 -9 0 -8 -5 3 -16 18 -17 21 -28 6 -19 -6 3 -7 -1 -4 -9 3 -9
10 -14 14 -11 4 3 10 -2 14 -10 3 -8 -3 -19 -12 -24 -10 -6 -12 -11 -4 -11 6
0 12 -4 12 -10 0 -15 -37 -49 -46 -42 -4 4 -4 -2 0 -12 5 -16 4 -17 -9 -6 -9
7 -18 10 -22 6 -3 -3 -1 -6 6 -6 7 0 9 -5 6 -10 -4 -6 -11 -7 -17 -4 -7 5 -9
1 -5 -9 5 -13 1 -17 -14 -17 -13 0 -18 -4 -13 -12 5 -8 2 -9 -9 -5 -9 3 -16 3
-16 -1 3 -20 -2 -33 -11 -27 -5 3 -10 0 -10 -8 0 -7 -11 -20 -25 -27 -13 -7
-21 -18 -18 -24 4 -6 -2 -4 -12 4 -11 9 -16 10 -11 2 4 -7 1 -15 -8 -18 -9 -3
-16 -13 -16 -21 0 -8 -3 -12 -7 -10 -5 2 -16 -4 -25 -15 -12 -12 -14 -18 -5
-18 9 0 9 -2 -1 -9 -8 -4 -13 -11 -13 -15 3 -20 0 -26 -11 -20 -10 6 -10 5 -1
-7 12 -15 12 -31 -2 -63 -5 -11 -8 -34 -8 -53 0 -24 -4 -32 -13 -29 -8 3 -16
0 -20 -6 -4 -6 -3 -8 3 -5 6 4 13 -4 15 -18 3 -14 1 -25 -4 -25 -5 0 -6 -4 -3
-10 3 -5 0 -10 -7 -10 -9 0 -9 -3 2 -10 13 -9 13 -10 0 -10 -13 0 -13 -1 0
-10 11 -7 11 -10 2 -10 -9 0 -12 -10 -8 -30 2 -17 1 -28 -4 -25 -5 3 -10 0
-12 -6 -2 -7 -21 -13 -41 -13 -20 -1 -37 -5 -37 -11 0 -5 -5 -3 -10 5 -7 11
-10 11 -10 2 0 -7 -4 -10 -10 -7 -5 3 -20 0 -32 -8 -13 -8 -42 -14 -66 -13
-24 1 -46 -2 -49 -7 -4 -6 0 -7 8 -2 8 5 10 4 6 0 -10 -12 -38 -15 -31 -4 3 5
0 9 -5 9 -6 0 -11 -4 -11 -9 0 -5 -11 -11 -25 -13 -13 -3 -22 -2 -20 2 2 4 -2
7 -10 7 -8 0 -11 -5 -8 -10 4 -6 0 -8 -10 -4 -10 4 -16 2 -14 -5 1 -7 -4 -13
-10 -14 -7 -1 -16 -3 -20 -4 -5 -1 -11 -2 -15 -1 -4 0 -5 -6 -2 -14 4 -8 1
-15 -5 -15 -6 0 -16 -11 -21 -24 -5 -14 -21 -33 -35 -42 -14 -9 -24 -22 -21
-29 3 -8 -5 -11 -20 -9 -21 2 -23 0 -13 -12 9 -11 8 -15 -5 -20 -9 -3 -13 -11
-9 -17 4 -6 0 -8 -10 -4 -11 4 -17 1 -17 -9 0 -9 -5 -12 -12 -8 -6 4 -8 3 -5
-3 4 -6 -1 -19 -9 -29 -9 -10 -12 -13 -8 -5 5 10 3 12 -5 7 -7 -5 -10 -13 -8
-20 3 -7 -9 -11 -34 -12 -21 0 -36 3 -33 7 2 4 -1 11 -7 15 -7 4 -9 3 -5 -4 3
-6 2 -13 -3 -16 -5 -3 -12 1 -15 10 -3 8 -10 13 -15 10 -13 -8 -62 19 -53 30
4 4 -1 2 -10 -5 -17 -13 -22 -9 -19 14 1 6 -6 1 -14 -9 -13 -17 -15 -17 -15
-3 0 10 -5 14 -14 11 -8 -3 -17 0 -22 7 -5 8 -3 10 6 4 8 -5 11 -4 7 3 -4 5
-16 8 -27 5 -11 -3 -20 0 -20 6 0 6 -5 11 -11 11 -5 0 -7 -5 -3 -11 4 -8 0 -8
-15 0 -11 7 -21 17 -21 24 0 7 -4 6 -10 -3 -8 -12 -10 -12 -10 -1 0 10 -3 11
-14 2 -10 -9 -16 -9 -21 -1 -5 8 -11 8 -21 -1 -8 -6 -14 -8 -14 -3 0 4 -5 3
-12 -4 -7 -7 -23 -12 -36 -12 -14 0 -21 -4 -16 -11 4 -8 0 -8 -15 0 -16 9 -21
9 -19 0 2 -6 -3 -14 -11 -17 -9 -3 -11 0 -7 9 4 8 -2 3 -14 -11 -12 -14 -19
-19 -15 -12 3 6 1 12 -4 12 -6 0 -11 -6 -11 -12 0 -9 -4 -8 -10 2 -6 9 -10 10
-10 3 0 -7 -10 -17 -21 -24 -15 -8 -19 -8 -15 0 4 6 2 11 -3 11 -6 0 -11 -4
-11 -10 0 -5 -7 -6 -17 -3 -11 4 -14 3 -9 -5 7 -11 -6 -17 -28 -13 -5 1 -13
-4 -17 -11 -7 -10 -9 -10 -9 0 0 10 -5 10 -20 2 -11 -6 -20 -7 -19 -3 4 21 -2
33 -13 27 -7 -5 -9 -2 -5 9 4 10 2 14 -6 11 -7 -2 -17 6 -22 18 -6 13 -17 22
-25 20 -8 -2 -12 0 -8 3 4 4 -4 17 -18 28 -14 11 -23 26 -20 34 3 8 2 12 -3 9
-12 -8 -33 19 -23 29 4 5 -1 5 -11 2 -11 -4 -16 -3 -12 3 3 6 1 10 -4 10 -6 0
-11 5 -11 11 0 5 5 7 12 3 7 -4 8 -3 4 4 -4 6 -13 9 -21 5 -8 -3 -15 0 -15 6
0 14 -36 51 -50 51 -5 0 -10 5 -10 11 0 7 -10 9 -24 5 -14 -3 -27 -2 -30 3 -4
5 -14 8 -23 7 -9 -2 -28 3 -41 10 -13 6 -37 10 -53 7 -23 -3 -29 0 -29 14 0
10 -4 14 -8 8 -10 -15 -55 -12 -60 4 -4 11 -6 11 -13 0 -7 -11 -9 -11 -9 -1 0
7 -5 10 -10 7 -6 -4 -17 -1 -25 5 -11 10 -15 10 -15 1 0 -7 -5 -9 -10 -6 -6 4
-7 12 -3 18 5 8 2 8 -9 0 -20 -17 -29 -6 -18 23 6 15 5 26 -2 30 -7 5 -8 3 -3
-6 5 -9 4 -11 -4 -6 -9 6 -9 11 0 22 8 10 8 14 0 14 -6 0 -11 5 -11 11 0 5 6
7 13 3 6 -4 1 6 -13 22 -14 15 -18 23 -10 17 12 -9 15 -7 15 12 0 18 -3 21
-12 13 -16 -13 -17 4 -1 20 9 9 9 12 0 12 -8 0 -10 14 -8 41 3 26 0 42 -8 45
-7 3 -12 18 -11 34 1 16 -2 27 -6 24 -5 -2 -6 9 -4 26 3 28 2 30 -13 18 -11
-9 -14 -9 -8 -1 8 15 -55 82 -96 103 -16 7 -28 20 -28 28 0 9 -3 13 -6 10 -6
-7 -45 28 -63 57 -10 16 -11 17 -7 2 4 -11 2 -16 -5 -11 -6 3 -8 15 -5 27 3
14 2 17 -6 9 -27 -27 -72 64 -47 95 6 7 8 17 4 23 -3 5 -1 10 5 10 6 0 8 5 5
10 -3 6 -1 10 6 10 7 0 9 3 6 6 -3 4 -1 16 5 28 9 18 9 19 -3 11 -8 -5 -6 -2
4 8 13 11 18 26 15 42 -3 13 -2 22 2 20 4 -3 13 2 19 9 8 9 8 16 2 20 -7 5 -7
15 1 31 6 13 15 22 20 18 6 -3 5 4 -1 16 -10 18 -9 20 6 14 16 -6 16 -5 4 10
-10 13 -10 17 -1 17 7 0 10 6 7 14 -3 8 -1 17 6 20 7 2 3 5 -8 5 -17 1 -17 3
-5 11 12 8 12 10 -5 11 -11 0 -14 3 -7 6 6 2 12 9 12 14 0 6 -4 8 -9 5 -5 -3
-11 3 -14 14 -3 13 -1 18 6 13 7 -4 6 1 -2 10 -7 9 -11 23 -8 31 4 10 0 14
-12 11 -14 -3 -17 2 -13 22 4 20 2 24 -9 18 -12 -8 -12 -6 0 8 11 13 11 17 1
17 -8 0 -10 3 -7 7 4 3 1 13 -5 21 -7 8 -14 26 -16 40 -2 15 -9 33 -15 41 -10
12 -9 13 3 6 10 -6 9 -2 -3 12 -12 14 -15 23 -7 28 5 3 8 10 5 15 -5 8 24 25
38 21 5 -1 6 3 2 9 -3 5 -1 10 4 10 6 0 10 3 8 8 -1 4 2 7 6 7 5 0 13 8 18 18
6 9 17 17 25 17 8 0 13 4 10 9 -3 4 6 13 19 19 14 7 25 16 25 22 0 5 7 10 15
10 8 0 15 5 15 11 0 5 -5 7 -12 3 -6 -4 -8 -3 -4 4 3 6 15 9 26 7 11 -2 19 -1
19 3 -4 22 3 33 16 28 8 -3 14 -2 14 2 -4 25 3 34 22 29 16 -4 18 -3 9 8 -8 9
-6 14 5 19 11 4 14 13 10 26 -4 13 -2 20 6 20 7 0 9 3 6 7 -4 3 -1 13 6 21 8
11 8 14 0 9 -13 -8 -12 18 2 30 4 4 5 2 0 -6 -6 -10 -4 -12 4 -7 9 6 9 11 1
21 -8 9 -8 15 0 20 5 3 10 15 10 26 0 12 -4 17 -11 14 -6 -4 -5 2 2 13 7 12
18 18 24 15 5 -3 4 0 -2 8 -7 7 -13 17 -13 22 0 4 6 5 13 1 9 -6 9 -4 -1 8
-11 14 -10 18 5 27 12 7 13 10 4 11 -10 0 -11 3 -3 13 6 7 9 25 8 40 -3 21 0
25 9 17 9 -8 12 -4 10 13 -2 16 2 23 15 23 10 0 17 -3 14 -7 -2 -4 5 -5 16 -2
11 3 17 10 13 17 -4 6 1 5 10 -3 11 -8 17 -9 17 -3 0 7 7 9 17 5 11 -4 14 -3
9 5 -4 7 -2 12 3 12 6 0 11 -6 12 -12 0 -10 2 -10 6 0 4 10 8 10 20 1 11 -10
14 -10 11 2 -2 10 4 13 21 11 13 -2 21 0 18 5 -3 5 7 9 23 8 15 0 26 -3 23 -7
-2 -5 1 -8 6 -8 6 0 11 6 11 14 0 8 4 18 10 21 6 4 7 -1 3 -12 -5 -15 -3 -16
7 -6 10 9 17 9 26 2 9 -7 16 -5 24 11 9 17 14 19 25 10 11 -9 16 -6 25 10 6
12 18 19 25 16 9 -3 12 0 8 10 -3 7 0 14 7 14 6 0 8 5 5 10 -3 6 0 10 8 10 8
0 22 10 33 23 l19 22 -25 -20 -25 -20 24 27 c13 15 28 25 34 21 6 -3 7 -1 4 4
-8 14 30 63 48 63 8 0 12 6 9 14 -3 8 0 17 7 22 8 5 10 3 4 -6 -5 -9 -4 -11 3
-6 7 4 12 12 12 19 0 6 12 24 27 39 27 28 39 36 28 18z m2420 -20 c3 -6 1 -10
-5 -10 -7 0 -5 -6 4 -15 9 -9 13 -27 11 -46 -3 -24 -1 -28 9 -20 10 9 13 5 10
-16 -1 -15 3 -31 9 -35 9 -6 9 -8 -1 -8 -10 0 -10 -5 -1 -21 6 -12 9 -32 6
-45 -2 -13 0 -21 4 -18 4 2 13 -4 19 -15 7 -14 7 -22 -2 -27 -7 -5 -8 -3 -3 6
5 9 4 11 -3 6 -8 -5 -8 -13 0 -31 6 -13 14 -23 17 -21 3 2 6 -13 6 -33 1 -24
-4 -38 -12 -38 -8 0 -9 4 -4 11 6 7 1 12 -16 13 -19 1 -22 -1 -12 -8 11 -7 11
-9 -3 -9 -10 0 -18 8 -19 18 0 15 -1 15 -8 -2 -6 -16 -9 -16 -13 -5 -6 15 -45
18 -66 6 -6 -4 -15 1 -21 11 -7 14 -19 18 -46 17 -21 -2 -35 2 -35 9 0 6 -5 4
-10 -4 -6 -9 -10 -10 -10 -3 0 6 -8 13 -17 15 -19 4 -26 45 -7 45 7 0 10 -5 7
-11 -3 -6 -3 -8 2 -4 13 12 16 80 3 72 -7 -4 -8 -3 -4 5 6 9 11 9 21 1 10 -8
12 -4 9 20 -2 19 0 29 6 25 6 -3 7 1 4 9 -4 9 -1 16 6 16 10 0 10 3 0 15 -11
13 -10 14 5 9 13 -5 16 -4 11 5 -4 6 -2 19 6 28 11 14 11 16 -2 8 -12 -7 -13
-6 -3 7 7 8 10 18 6 21 -3 4 2 7 12 7 13 0 15 3 6 13 -8 11 -3 17 25 30 19 10
40 15 45 12 5 -4 9 -1 9 5 0 12 34 -3 45 -20z m-1394 -27 c13 -16 12 -17 -3
-4 -17 13 -22 21 -14 21 2 0 10 -8 17 -17z m-2469 -280 c-6 -2 -9 -10 -6 -15
4 -7 2 -8 -5 -4 -13 9 -5 26 12 25 9 0 8 -2 -1 -6z m514 -88 c-4 -13 -2 -14
14 -5 11 6 20 7 20 3 0 -4 5 -1 10 7 6 10 10 11 10 3 0 -7 7 -13 15 -13 8 0
15 5 15 12 0 6 3 8 6 5 4 -4 1 -13 -6 -22 -10 -12 -9 -15 6 -15 17 0 17 -1 -2
-16 -10 -8 -12 -12 -4 -8 13 7 13 5 2 -9 -8 -9 -11 -21 -7 -27 3 -5 2 -10 -2
-10 -5 0 -9 -9 -9 -19 0 -11 4 -17 8 -15 4 3 8 0 8 -5 0 -6 -7 -11 -16 -11
-13 0 -14 -3 -5 -14 9 -11 9 -16 0 -22 -8 -5 -10 -3 -4 7 5 8 4 11 0 6 -12
-10 -17 -50 -7 -43 5 3 9 -1 9 -9 0 -8 -4 -12 -9 -9 -4 3 -8 0 -8 -6 0 -6 -4
-8 -10 -5 -5 3 -7 0 -5 -7 10 -25 -38 -65 -69 -59 -5 1 -3 -5 4 -14 11 -13 10
-15 -3 -9 -11 4 -20 -2 -28 -20 -10 -22 -45 -44 -58 -37 -2 2 -7 -3 -11 -10
-10 -16 -40 -4 -40 16 0 10 5 13 13 9 6 -4 4 2 -5 13 -10 11 -18 27 -18 36 0
9 -4 17 -9 17 -5 0 -12 7 -15 16 -3 8 -2 13 3 10 5 -4 7 3 4 14 -3 11 -9 23
-14 26 -5 3 -9 14 -9 25 0 10 -4 19 -9 19 -4 0 -7 12 -5 26 1 15 -4 28 -13 31
-12 5 -12 7 -1 14 11 7 11 9 -1 9 -7 0 -11 6 -7 15 3 8 2 15 -3 15 -4 0 -8 7
-8 15 0 8 3 13 5 10 3 -3 11 0 19 7 11 9 12 7 6 -8 -6 -16 -5 -17 9 -4 9 8 14
18 11 23 -2 4 3 7 12 7 9 0 13 -5 9 -11 -4 -8 -1 -8 12 -1 11 5 27 8 37 6 11
-1 17 2 14 10 -3 6 3 12 13 12 10 0 16 -4 14 -8 -3 -4 2 -8 11 -8 9 0 13 4 10
10 -3 6 1 7 9 4 9 -3 16 -2 16 3 0 5 9 9 20 10 13 1 18 -3 15 -10 -4 -7 2 -2
12 10 21 26 27 29 19 8z m2582 -4 c12 -14 13 -14 8 3 -5 16 -4 17 8 7 8 -7 21
-9 27 -5 7 4 9 3 6 -3 -4 -6 0 -13 8 -17 8 -3 17 -1 21 5 4 6 11 6 19 -1 8 -7
19 -9 25 -5 5 3 10 -2 11 -12 0 -16 1 -16 8 1 7 18 8 18 14 2 5 -13 11 -15 26
-6 14 7 22 7 27 -1 3 -6 15 -9 25 -6 12 3 19 0 19 -9 0 -8 5 -14 11 -14 5 0 7
5 4 10 -3 6 1 10 10 10 9 0 13 -4 10 -10 -3 -5 -1 -10 4 -10 6 0 11 -5 11 -11
0 -5 -4 -7 -10 -4 -6 4 -7 -1 -3 -10 3 -10 0 -21 -8 -26 -10 -6 -10 -9 -1 -9
6 0 12 -5 12 -11 0 -5 -4 -7 -10 -4 -5 3 -10 -1 -10 -10 0 -9 -7 -30 -17 -48
-15 -31 -15 -31 2 -17 17 14 17 14 5 -7 -8 -12 -19 -19 -25 -16 -5 4 -7 3 -3
-2 4 -4 2 -15 -5 -23 -6 -9 -7 -13 -1 -9 6 3 11 -1 11 -9 0 -9 -6 -13 -15 -9
-13 5 -13 3 -1 -12 8 -9 9 -14 4 -11 -6 4 -16 -2 -23 -13 -7 -11 -8 -19 -2
-19 5 0 10 5 10 12 0 6 3 9 6 5 3 -3 2 -12 -2 -19 -5 -7 -9 -15 -9 -18 0 -3
-7 -15 -16 -28 -17 -23 -17 -23 -48 -4 -24 15 -28 21 -18 31 9 10 8 11 -7 5
-15 -6 -18 -4 -13 9 4 11 2 14 -7 11 -7 -3 -24 6 -36 19 -13 14 -29 24 -34 23
-6 -2 -8 -1 -3 1 4 3 7 9 7 14 0 6 -4 8 -9 5 -5 -3 -12 1 -15 10 -3 8 -11 12
-17 8 -8 -4 -9 -3 -5 4 4 7 3 12 -2 12 -5 0 -9 16 -9 36 1 21 -5 39 -13 45
-13 7 -13 9 0 9 11 0 12 2 2 8 -7 5 -13 25 -14 45 -1 20 -6 37 -12 37 -6 0 -5
5 2 12 7 7 12 17 12 23 0 5 -5 3 -10 -5 -13 -20 -14 5 -1 29 12 22 42 23 59 2z
m-3039 -107 c4 3 13 -4 20 -16 7 -11 8 -17 3 -14 -18 11 -6 -27 13 -40 14 -10
15 -14 4 -14 -11 0 -11 -2 -1 -9 7 -4 14 -24 15 -44 2 -29 4 -33 16 -24 11 9
13 9 8 0 -4 -6 -3 -15 3 -18 8 -5 7 -11 -1 -21 -9 -11 -9 -14 0 -14 7 0 9 -4
6 -10 -3 -5 -1 -10 6 -10 9 0 9 -3 0 -14 -9 -11 -9 -16 0 -22 8 -4 9 -3 5 4
-4 7 -2 12 3 12 6 0 11 -16 11 -36 0 -21 4 -33 10 -29 6 3 10 1 10 -4 0 -6 -5
-11 -12 -11 -6 0 -1 -9 11 -19 14 -12 18 -22 11 -26 -6 -3 -8 -11 -4 -16 3 -5
9 -7 14 -4 5 3 5 -8 0 -24 -4 -16 -5 -32 -2 -36 4 -3 -1 -3 -11 1 -12 4 -17 1
-17 -12 0 -9 -3 -14 -7 -11 -3 4 -12 -2 -20 -13 -8 -11 -20 -20 -28 -20 -9 0
-12 -6 -8 -17 4 -11 3 -14 -6 -9 -13 8 -68 -42 -63 -58 2 -5 -5 -3 -14 5 -12
9 -15 9 -10 2 4 -7 2 -13 -3 -13 -6 0 -10 -3 -10 -7 3 -20 -2 -26 -11 -13 -9
13 -10 13 -10 -1 0 -8 -12 -26 -27 -40 -20 -17 -23 -18 -10 -3 9 11 17 24 17
29 0 4 -10 -5 -22 -21 -13 -16 -22 -33 -20 -38 2 -4 -4 -6 -13 -2 -11 4 -15 1
-13 -11 2 -12 -4 -18 -17 -17 -11 0 -23 -5 -27 -11 -5 -6 -8 -5 -8 4 0 7 -6
11 -15 7 -8 -3 -15 -2 -15 3 0 15 -40 55 -40 40 -1 -10 -4 -9 -11 4 -5 9 -7
22 -4 27 4 6 3 10 -2 9 -17 -4 -64 21 -58 31 4 6 1 9 -7 8 -7 -2 -12 3 -10 10
1 6 -4 11 -10 10 -7 -2 -12 2 -11 9 2 7 -4 10 -12 7 -9 -4 -24 9 -42 35 -15
22 -35 40 -44 41 -19 0 -33 26 -19 35 6 4 6 14 -1 27 -10 18 -9 20 7 14 15 -6
16 -4 7 5 -8 8 -9 19 -2 38 6 14 10 27 10 29 -5 17 1 32 12 26 8 -5 8 -2 -2 9
-10 13 -10 17 -1 17 7 0 10 7 6 16 -3 9 -3 21 1 27 4 7 8 17 9 22 0 6 2 16 2
23 1 7 7 10 13 6 8 -4 8 0 0 15 -7 13 -8 21 -2 21 5 0 8 9 6 20 -3 13 0 18 7
14 7 -5 9 2 6 19 -3 15 -2 24 2 22 4 -3 10 4 13 15 3 11 11 20 19 20 10 0 9
-3 -2 -10 -8 -5 -10 -10 -5 -10 6 0 20 7 31 15 12 8 24 11 28 8 3 -3 6 -1 6 6
0 9 5 9 21 0 17 -9 20 -8 14 1 -6 10 -1 12 19 8 14 -3 26 -2 26 2 0 4 9 10 20
13 11 3 18 1 14 -4 -3 -5 -1 -9 5 -9 5 0 11 6 14 13 3 9 9 9 25 0 18 -11 20
-10 15 4 -5 12 -3 14 6 8 8 -4 17 -2 22 6 5 8 9 9 9 3 0 -15 40 -10 51 7 7 11
9 10 10 -6 0 -16 2 -17 7 -4 4 9 15 15 25 13 9 -1 18 3 18 9 1 7 3 4 6 -6 2
-9 8 -15 12 -13z m3601 1 c0 4 6 3 12 -1 7 -5 30 -10 52 -12 22 -2 48 -8 58
-13 13 -7 18 -6 18 3 0 8 5 6 11 -4 7 -14 15 -15 34 -8 20 7 25 6 25 -5 0 -18
16 -20 26 -4 5 8 10 7 16 -4 7 -13 14 -14 33 -7 21 8 25 6 26 -8 0 -10 3 -12
6 -5 7 19 36 -14 29 -32 -3 -10 1 -15 12 -16 14 0 14 -2 -2 -8 -19 -7 -19 -8
1 -13 16 -4 20 -11 16 -32 -3 -14 1 -34 8 -43 10 -12 10 -14 2 -9 -19 11 -15
-5 5 -20 12 -10 13 -13 3 -14 -11 0 -10 -5 2 -24 12 -18 13 -26 4 -36 -7 -7
-7 -10 -2 -7 6 3 16 -3 23 -13 10 -16 9 -21 -6 -29 -16 -10 -16 -10 1 -11 10
0 16 -4 13 -9 -4 -5 0 -12 6 -14 8 -3 5 -6 -6 -6 -18 -1 -18 -2 1 -18 10 -10
14 -15 8 -11 -6 4 -10 -3 -10 -17 0 -13 3 -21 8 -18 4 2 7 0 7 -5 0 -5 -12
-14 -26 -21 -15 -7 -24 -17 -21 -25 4 -10 0 -12 -14 -9 -13 4 -19 1 -17 -8 2
-8 -2 -13 -9 -12 -8 2 -10 -4 -6 -15 6 -15 5 -15 -10 -3 -15 12 -17 12 -11 -3
6 -14 -5 -21 -29 -17 -4 0 -6 -5 -5 -11 2 -7 -3 -12 -9 -10 -7 1 -13 -5 -13
-14 0 -9 -5 -12 -12 -8 -7 5 -9 2 -5 -8 4 -12 1 -14 -15 -10 -14 3 -19 1 -14
-6 4 -7 2 -12 -4 -12 -6 0 -9 -3 -7 -7 2 -5 -5 -16 -16 -26 -19 -19 -19 -18
-12 5 5 18 2 16 -15 -9 -20 -30 -41 -48 -24 -21 4 7 3 8 -4 4 -7 -4 -12 -15
-13 -24 0 -11 -2 -12 -6 -4 -2 6 -10 9 -16 5 -7 -4 -6 1 2 10 12 15 12 17 -1
12 -16 -7 -61 28 -50 39 4 4 3 7 -3 6 -19 -4 -50 2 -38 7 17 6 -10 35 -29 31
-7 -2 -12 3 -10 10 1 6 -5 12 -14 12 -8 0 -12 5 -9 10 3 6 1 10 -5 10 -16 0
-40 26 -32 34 3 4 -1 4 -11 0 -15 -6 -22 4 -18 28 0 4 -7 4 -16 1 -13 -5 -15
-2 -10 12 7 16 5 16 -10 4 -9 -8 -14 -9 -10 -2 4 7 -1 14 -13 18 -11 3 -20 14
-20 22 0 9 -3 14 -6 10 -8 -8 -28 12 -37 37 -5 12 -3 17 5 13 9 -3 14 9 15 37
2 22 7 42 13 44 5 2 10 8 10 13 0 6 -4 7 -10 4 -6 -3 -7 1 -4 9 3 9 10 14 14
11 5 -3 7 6 4 21 -4 22 -2 25 12 20 14 -5 15 -4 4 9 -9 11 -9 15 -1 15 7 0 9
5 6 10 -3 6 -1 10 6 10 9 0 9 3 0 14 -10 12 -8 17 8 25 12 7 18 17 15 26 -4 9
-1 15 7 15 10 0 10 3 1 12 -14 14 -16 32 -3 24 5 -3 15 2 22 11 10 12 10 14 2
9 -7 -4 -13 -2 -13 3 0 6 5 11 11 11 5 0 8 4 5 9 -8 13 17 62 30 57 6 -2 17 0
24 4 8 5 22 4 32 -1 10 -5 18 -7 18 -4z m-4069 -522 c13 -16 12 -17 -3 -4 -10
7 -18 15 -18 17 0 8 8 3 21 -13z m3788 -109 c6 4 11 0 11 -9 0 -9 4 -14 9 -11
5 3 15 -2 22 -11 10 -11 10 -14 2 -9 -9 5 -11 2 -6 -9 4 -12 8 -13 13 -5 5 9
17 4 39 -15 17 -15 28 -32 25 -36 -3 -5 3 -6 12 -2 12 4 15 3 10 -5 -7 -11 6
-17 28 -13 5 1 3 -6 -5 -15 -10 -13 -11 -16 -1 -10 15 9 59 -31 54 -48 -2 -5
5 -3 15 4 10 8 15 11 11 6 -4 -5 -1 -15 7 -23 17 -16 20 -37 5 -28 -6 3 -7 -1
-4 -9 4 -11 0 -16 -11 -16 -11 0 -15 -5 -11 -16 3 -8 2 -13 -3 -9 -13 7 -42
-5 -36 -16 3 -4 -4 -13 -15 -19 -12 -6 -18 -16 -13 -23 4 -7 0 -6 -10 2 -15
12 -17 12 -11 -4 5 -13 4 -16 -4 -11 -7 4 -12 2 -12 -4 0 -6 -5 -8 -12 -4 -8
5 -9 2 -5 -10 4 -9 3 -14 -2 -11 -5 3 -13 0 -17 -6 -4 -8 -9 -7 -16 2 -6 10
-7 7 -3 -10 5 -16 4 -21 -4 -17 -6 4 -11 2 -11 -3 0 -6 -7 -11 -15 -11 -8 0
-14 -6 -13 -12 2 -7 -5 -12 -14 -12 -10 1 -18 -1 -18 -5 0 -4 -7 -8 -15 -8
-11 0 -12 4 -6 10 7 7 5 15 -7 24 -9 8 -11 11 -3 7 10 -5 12 -3 5 7 -9 15 -11
20 -13 45 0 8 -6 12 -12 9 -7 -5 -9 3 -6 24 3 18 1 29 -4 25 -5 -3 -6 -11 -3
-17 4 -7 3 -9 -1 -4 -15 13 -17 49 -3 42 7 -4 6 -1 -3 7 -9 7 -14 19 -11 27 3
8 0 11 -7 7 -15 -9 -14 7 1 22 9 9 9 12 0 12 -18 0 -15 13 8 38 12 12 17 22
12 22 -5 0 -9 7 -9 15 0 8 4 12 9 9 4 -3 8 1 9 8 2 37 11 63 24 71 12 6 13 13
4 29 -8 15 -8 19 0 14 7 -5 11 2 11 16 0 17 3 19 9 9 5 -7 14 -10 20 -7z
m-3082 -21 c10 -21 10 -28 0 -35 -8 -5 -7 -8 5 -8 11 0 16 -6 13 -20 -3 -13 2
-20 13 -21 10 0 12 -3 5 -6 -10 -3 -10 -10 -2 -24 5 -11 15 -17 20 -13 8 4 7
0 0 -14 -8 -16 -7 -21 5 -26 8 -3 12 -10 9 -16 -13 -22 -15 -60 -3 -60 7 0 3
-7 -9 -15 -14 -10 -20 -21 -16 -32 4 -11 3 -14 -5 -9 -17 10 -15 0 4 -18 13
-14 13 -16 1 -16 -20 0 -27 -20 -15 -43 5 -9 5 -17 1 -16 -22 4 -31 -3 -28
-21 2 -11 -1 -20 -6 -20 -6 0 -8 -4 -5 -9 10 -15 -22 -20 -34 -5 -7 8 -9 14
-4 14 5 1 -7 9 -26 18 -19 9 -40 28 -47 42 -7 14 -18 25 -25 25 -22 0 -71 53
-62 67 4 7 4 10 -1 6 -9 -9 -47 10 -41 21 3 4 -5 13 -17 20 -18 11 -20 11 -9
0 6 -7 12 -18 12 -23 -1 -16 -24 27 -25 44 0 15 18 40 30 40 3 0 3 -5 -1 -12
-4 -7 -3 -8 5 -4 9 6 9 11 1 21 -8 9 -7 13 2 11 7 0 13 2 13 6 0 14 45 39 57
32 6 -4 8 -3 5 3 -7 12 16 36 26 28 4 -3 5 -2 3 1 -9 11 32 46 45 39 7 -5 10
-4 5 3 -7 11 27 36 37 26 3 -3 4 3 4 13 -2 13 5 18 20 17 12 0 20 3 17 8 -3 4
-2 8 3 8 4 0 14 -12 20 -27z m-787 -31 c0 -4 14 -13 30 -20 17 -8 30 -20 30
-28 0 -9 5 -12 10 -9 6 3 10 1 10 -4 0 -6 8 -11 18 -12 14 0 14 -2 -3 -9 -18
-8 -17 -9 8 -9 16 -1 26 -4 24 -8 -3 -5 4 -17 15 -28 19 -20 19 -20 13 0 -3
11 1 7 10 -8 9 -16 22 -26 29 -24 18 7 13 -26 -8 -54 -9 -13 -14 -18 -11 -12
4 8 1 11 -9 7 -9 -3 -13 -11 -9 -17 4 -7 0 -8 -12 -3 -16 6 -16 4 -4 -11 9
-11 10 -14 2 -9 -8 4 -13 2 -13 -4 0 -6 -4 -9 -10 -5 -5 3 -17 -6 -26 -20 -9
-14 -22 -25 -30 -25 -7 0 -18 -10 -25 -21 -9 -17 -13 -19 -20 -8 -6 10 -9 7
-10 -11 0 -14 -3 -19 -6 -12 -2 6 -9 12 -14 12 -6 0 -7 -4 -4 -10 3 -5 1 -10
-5 -10 -7 0 -9 8 -5 21 6 16 4 20 -6 13 -10 -6 -10 -3 1 11 8 10 10 16 4 12
-7 -4 -14 0 -18 8 -3 8 -1 15 5 15 6 0 7 5 4 10 -4 6 -11 7 -17 4 -6 -4 -5 2
1 15 10 17 9 22 -4 27 -8 3 -15 10 -15 16 0 5 4 7 9 4 5 -4 7 3 4 14 -3 11 -9
18 -13 15 -11 -7 -6 22 5 32 4 4 5 2 0 -6 -5 -9 -4 -12 3 -8 5 4 8 16 5 27 -3
10 2 26 11 35 13 13 14 21 5 37 -10 18 -9 20 7 14 15 -6 16 -5 7 5 -10 10 -9
17 5 33 10 11 11 16 3 11 -10 -5 -12 -4 -7 3 8 13 26 16 26 4z m4631 -6 c-9
-11 -9 -16 0 -22 8 -4 9 -3 5 4 -4 7 -1 12 9 12 9 0 13 -4 10 -10 -3 -5 0 -10
7 -10 8 0 9 -3 3 -8 -17 -12 -16 -32 3 -32 14 0 14 -2 3 -9 -12 -8 -12 -12 -2
-24 13 -16 16 -56 10 -120 -2 -29 -7 -36 -19 -32 -9 3 -8 -1 4 -10 17 -13 15
-19 -5 -17 -4 1 -4 -8 -1 -20 3 -14 1 -19 -6 -14 -9 5 -9 0 -2 -18 6 -17 6
-27 -2 -32 -6 -4 -8 -3 -5 3 4 6 0 13 -8 16 -10 4 -12 1 -8 -11 6 -15 5 -15
-10 -3 -9 7 -15 17 -12 21 3 4 -3 7 -13 6 -9 0 -16 5 -14 12 1 8 -2 11 -8 7
-5 -3 -10 -1 -10 5 0 6 -3 9 -7 7 -11 -7 -33 19 -25 29 4 4 -1 4 -10 1 -12 -4
-18 -1 -18 7 0 8 -9 16 -20 19 -11 3 -20 13 -20 24 0 15 -2 16 -10 3 -8 -13
-10 -13 -10 1 0 9 -7 19 -15 23 -17 6 -20 26 -4 26 5 0 7 -5 3 -12 -4 -7 -3
-8 4 -4 6 4 9 13 5 21 -3 10 1 15 12 15 9 0 14 4 11 8 -3 5 9 16 25 26 18 11
28 24 25 32 -3 8 -2 13 2 11 10 -3 53 29 47 35 -3 2 3 4 13 4 9 -1 17 3 17 7
0 5 11 15 25 22 32 18 35 18 21 1z m-3766 -175 c3 -5 2 -12 -3 -15 -5 -3 -9 1
-9 9 0 17 3 19 12 6z m3421 -131 c8 0 14 -4 14 -10 0 -5 6 -10 14 -10 8 0 18
-9 21 -20 3 -11 13 -20 20 -20 8 0 19 -8 24 -17 6 -10 11 -15 11 -10 0 4 15
-7 33 -24 17 -17 31 -37 29 -43 -2 -6 0 -8 4 -4 11 11 61 -22 73 -49 10 -21
22 -28 45 -24 5 1 4 -5 -4 -13 -10 -13 -10 -16 4 -16 10 0 15 -4 12 -9 -4 -5
0 -12 6 -14 8 -3 6 -6 -4 -6 -10 -1 -18 -6 -18 -12 0 -6 6 -7 13 -2 6 4 4 -6
-7 -21 -10 -16 -13 -25 -6 -21 8 5 11 3 8 -6 -3 -8 -12 -13 -19 -11 -11 3 -11
1 -2 -9 10 -10 9 -15 -4 -24 -13 -10 -13 -14 -3 -20 9 -6 11 -4 5 5 -6 9 -4
11 5 5 10 -6 9 -11 -4 -21 -21 -15 -22 -24 -4 -35 10 -7 8 -9 -6 -9 -15 0 -16
-3 -7 -14 9 -11 9 -16 0 -22 -8 -5 -9 -3 -4 6 5 9 4 11 -4 6 -6 -4 -9 -18 -7
-32 3 -13 -2 -30 -10 -38 -10 -11 -11 -15 -1 -19 9 -3 9 -7 0 -19 -7 -8 -10
-18 -6 -21 3 -4 1 -7 -6 -7 -7 0 -10 -4 -7 -9 4 -5 3 -17 0 -26 -5 -13 -8 -14
-15 -3 -6 8 -9 9 -9 1 0 -6 -11 -10 -25 -8 -18 1 -22 -1 -16 -9 7 -8 4 -12
-10 -12 -14 0 -19 5 -16 18 3 10 1 16 -4 12 -5 -3 -9 -12 -9 -21 0 -9 -3 -13
-6 -10 -4 3 -15 2 -25 -4 -14 -7 -19 -6 -20 3 0 9 -2 10 -5 1 -3 -7 -11 -10
-19 -7 -7 3 -16 0 -20 -6 -5 -8 -11 -7 -23 2 -12 10 -14 10 -8 1 5 -9 0 -13
-16 -13 -13 0 -30 -6 -37 -12 -12 -11 -13 -10 -7 6 6 19 6 19 -12 3 -15 -13
-21 -14 -32 -4 -8 7 -11 8 -7 1 4 -7 0 -14 -8 -17 -10 -4 -12 -1 -9 11 4 10
-2 7 -15 -8 -19 -23 -26 -21 -21 5 1 6 -4 4 -11 -2 -19 -19 -34 -16 -18 3 12
15 11 16 -6 11 -18 -6 -20 -2 -22 34 -2 22 -12 53 -23 69 -13 18 -17 31 -10
35 6 4 8 11 4 16 -3 5 -10 6 -16 3 -7 -5 -8 -2 -3 6 4 7 2 16 -6 21 -12 7 -11
9 1 9 9 1 5 6 -10 15 -14 8 -19 14 -13 15 8 0 11 9 9 23 -2 12 -8 21 -14 20
-6 -2 -9 10 -7 28 3 17 0 27 -5 24 -10 -6 -12 -1 -14 28 -1 6 -5 15 -11 19 -6
5 -4 8 4 8 11 0 9 4 -5 15 -11 8 -14 14 -6 15 10 0 10 5 1 23 -12 21 -11 21 7
7 10 -8 16 -11 12 -6 -10 12 11 48 23 41 5 -4 9 -1 9 5 0 6 4 9 9 5 5 -3 12
-1 16 5 3 5 0 10 -7 11 -7 0 -1 5 14 10 15 6 30 19 33 30 4 10 10 19 13 19 4
0 23 14 42 32 19 18 41 31 48 30 7 -2 11 3 10 10 -2 7 5 12 14 12 10 -1 17 1
16 5 -2 20 4 31 17 31 9 0 18 7 21 15 4 8 13 15 22 15 8 0 13 3 9 6 -3 3 0 12
6 19 7 7 14 9 15 4 2 -5 10 -9 18 -9z m-3911 -9 c-2 -13 1 -18 9 -15 8 3 16
-2 20 -11 3 -9 10 -13 16 -10 5 3 10 1 10 -5 0 -6 4 -8 10 -5 6 3 7 -1 4 -9
-4 -11 4 -22 25 -33 17 -10 31 -25 32 -33 0 -10 2 -11 6 -3 3 8 12 5 27 -10
13 -12 21 -25 19 -29 -2 -4 3 -5 11 -2 10 4 16 1 16 -9 0 -9 9 -18 19 -22 11
-3 22 -12 25 -20 3 -8 13 -15 22 -15 10 0 14 -5 11 -14 -4 -9 -1 -13 7 -10 17
6 51 -32 36 -41 -8 -5 -7 -11 2 -23 10 -12 10 -14 1 -8 -8 4 -13 1 -13 -8 0
-9 -5 -16 -12 -16 -9 0 -9 -3 0 -12 15 -15 16 -32 2 -23 -5 3 -10 1 -10 -5 0
-6 -6 -8 -12 -4 -10 5 -10 4 -2 -5 13 -14 7 -51 -7 -51 -5 0 -9 -5 -9 -11 0
-5 6 -7 13 -4 6 4 4 0 -7 -9 -10 -8 -16 -22 -13 -31 4 -8 2 -15 -2 -15 -5 0
-12 -7 -15 -16 -4 -10 -1 -13 7 -9 6 3 4 0 -5 -7 -15 -11 -15 -13 0 -25 15
-12 15 -12 -2 -6 -13 4 -17 3 -12 -5 4 -7 2 -12 -6 -12 -10 0 -10 -2 0 -9 11
-7 9 -13 -10 -31 -12 -13 -17 -20 -10 -16 6 4 12 2 12 -3 0 -6 -5 -11 -11 -11
-6 0 -8 -7 -5 -16 3 -8 2 -13 -3 -10 -5 3 -11 -1 -14 -9 -4 -10 -1 -12 11 -9
9 3 1 -3 -18 -14 -31 -16 -38 -16 -57 -4 -12 7 -27 11 -33 7 -5 -3 -10 -1 -10
6 0 8 -4 8 -15 -1 -9 -7 -15 -8 -15 -2 0 5 -13 9 -29 8 -17 -1 -27 2 -24 8 4
5 -1 7 -10 3 -10 -3 -17 -2 -17 2 0 5 -7 12 -16 15 -14 5 -15 4 -5 -8 10 -12
9 -14 -8 -9 -12 3 -19 9 -16 13 3 5 -5 6 -17 2 -16 -4 -19 -2 -13 9 8 12 6 12
-8 0 -17 -13 -53 -8 -44 6 3 5 -16 8 -41 8 -26 0 -45 2 -43 5 2 3 -1 16 -8 29
-8 14 -9 21 -2 17 7 -5 9 -1 5 8 -3 9 -11 13 -16 10 -6 -4 -5 4 2 16 10 20 10
22 -3 17 -11 -4 -13 0 -9 15 4 16 2 19 -9 13 -11 -6 -12 -5 -1 6 14 16 16 43
2 34 -5 -3 -10 -2 -10 4 0 5 6 12 13 14 7 3 4 6 -6 6 -10 1 -15 6 -12 11 3 6
0 10 -7 11 -10 0 -10 2 -1 6 9 3 10 10 3 23 -7 13 -6 20 3 23 7 3 4 6 -6 6
-15 1 -16 5 -7 21 6 11 7 19 3 18 -4 -2 -10 2 -11 7 -2 6 -8 15 -13 22 -7 7
-6 14 1 18 8 5 6 13 -7 27 -9 11 -13 18 -8 16 6 -2 10 2 10 7 0 6 -4 9 -8 7
-5 -1 -6 2 -2 8 3 6 11 8 16 5 5 -4 9 -1 9 4 0 6 7 11 15 11 8 0 15 5 15 11 0
5 5 7 12 3 8 -5 9 -2 5 10 -5 13 -3 17 7 13 8 -3 16 2 19 14 3 10 12 19 20 19
8 0 18 7 21 16 3 8 11 12 17 8 7 -4 9 -3 6 3 -4 6 1 17 10 24 14 12 16 12 8 0
-5 -10 -4 -12 3 -7 7 4 12 14 12 22 0 8 4 13 9 10 5 -3 11 1 15 9 3 8 12 15
20 15 8 0 22 9 30 21 9 14 19 18 28 13 9 -6 9 -3 -2 12 -8 10 -11 16 -7 13 6
-5 43 1 64 10 1 1 0 -8 -2 -18z m-90 -31 c-3 -5 -12 -10 -18 -10 -7 0 -6 4 3
10 19 12 23 12 15 0z m195 -45 c11 -13 10 -14 -4 -9 -9 3 -16 10 -16 15 0 13
6 11 20 -6z m398 -361 c6 3 19 -5 30 -19 11 -13 23 -21 27 -17 5 4 5 -1 2 -11
-4 -11 -3 -16 3 -12 6 3 10 1 10 -4 0 -6 4 -11 10 -11 13 0 59 -48 52 -54 -3
-3 0 -6 7 -6 7 0 19 -7 27 -15 12 -12 12 -15 2 -15 -8 0 -9 -3 -3 -8 10 -7 17
-27 18 -49 0 -7 4 -13 9 -13 4 0 8 -4 8 -10 0 -5 -8 -7 -17 -3 -12 4 -9 -1 7
-14 22 -19 23 -23 10 -39 -8 -10 -10 -15 -4 -11 16 9 25 -18 11 -32 -8 -8 -8
-11 2 -11 11 0 11 -3 0 -17 -8 -10 -9 -14 -2 -10 19 12 24 -10 6 -24 -12 -10
-14 -10 -9 -1 4 6 2 12 -3 12 -6 0 -11 -4 -11 -8 0 -5 -7 -9 -15 -9 -12 0 -12
3 -2 15 10 13 9 14 -10 3 -15 -7 -23 -8 -23 -1 0 5 -5 10 -11 10 -5 0 -8 -4
-5 -8 3 -5 -1 -9 -9 -9 -8 0 -15 7 -15 16 0 11 -3 12 -8 4 -5 -8 -13 -9 -22
-3 -9 6 -20 4 -29 -3 -10 -8 -13 -8 -8 -1 4 7 0 15 -9 18 -8 3 -13 2 -10 -2 2
-4 -4 -8 -14 -8 -15 0 -17 3 -7 15 10 12 9 13 -12 1 -21 -11 -23 -10 -18 3 4
11 2 14 -8 10 -8 -3 -12 -10 -8 -17 3 -6 -3 -3 -14 7 -23 20 -37 22 -28 5 4
-7 -3 -2 -14 12 -12 14 -20 18 -18 10 2 -8 2 -12 0 -7 -3 4 -8 5 -12 3 -4 -3
-7 4 -7 15 0 10 4 19 8 19 4 0 5 6 2 14 -3 7 2 16 10 19 9 4 13 13 10 22 -4 8
0 23 7 32 8 9 9 14 3 10 -6 -3 -11 0 -11 7 0 8 7 12 15 8 10 -3 13 -1 8 7 -4
6 -2 19 6 28 11 14 11 16 -2 8 -12 -7 -13 -6 -3 7 7 8 9 19 5 23 -4 5 2 5 13
1 15 -6 17 -4 8 5 -14 14 -5 42 11 32 7 -5 7 -2 -1 8 -13 16 -1 45 14 36 5 -3
10 0 10 8 0 8 -4 12 -9 9 -12 -8 -10 5 5 20 7 9 14 10 18 4 4 -6 11 -8 17 -4z
m257 6 c3 -5 1 -10 -4 -10 -6 0 -11 5 -11 10 0 6 2 10 4 10 3 0 8 -4 11 -10z
m2632 -5 c4 -4 3 -5 -4 -1 -6 3 -14 2 -17 -3 -7 -10 13 -9 31 2 7 4 10 1 9
-10 -2 -10 4 -24 13 -31 14 -12 14 -13 -4 -7 -18 6 -18 4 3 -18 16 -16 19 -26
11 -34 -8 -8 -7 -13 2 -18 8 -6 10 -4 4 5 -5 8 -4 11 3 7 5 -4 9 -18 7 -32 -1
-14 3 -29 10 -33 6 -4 14 -15 18 -25 4 -11 3 -16 -3 -12 -6 3 -7 -1 -4 -9 3
-9 13 -16 21 -16 8 0 11 -5 8 -10 -4 -6 -12 -7 -18 -3 -8 5 -8 2 0 -9 7 -8 9
-19 5 -23 -4 -5 -2 -5 5 -1 6 3 14 2 18 -4 3 -5 1 -10 -5 -10 -6 0 -8 -5 -5
-10 4 -6 12 -8 18 -4 7 3 4 -1 -5 -9 -10 -8 -15 -17 -11 -20 3 -4 -1 -7 -11
-7 -10 0 -14 5 -10 12 4 7 3 8 -5 4 -8 -5 -9 -12 -2 -20 8 -9 1 -11 -26 -8
-27 3 -40 0 -50 -14 -12 -16 -13 -16 -13 -1 0 19 -2 20 -24 11 -9 -3 -13 -11
-9 -17 3 -5 1 -7 -5 -3 -6 3 -14 1 -18 -5 -5 -9 -11 -7 -21 6 -8 12 -13 14
-13 6 0 -8 -6 -11 -16 -7 -8 3 -12 2 -9 -4 3 -6 1 -10 -5 -10 -6 0 -8 -5 -4
-12 4 -7 3 -8 -5 -4 -6 4 -9 10 -7 14 2 4 -9 7 -24 7 -16 1 -27 -2 -24 -6 2
-4 -3 -9 -11 -13 -8 -3 -15 0 -15 6 0 7 -5 6 -15 -2 -18 -15 -19 -7 -4 22 10
18 9 20 -6 14 -15 -5 -16 -4 -6 8 11 13 22 61 24 104 0 6 5 12 10 12 5 0 7 9
4 20 -3 11 0 20 6 20 7 0 5 5 -3 10 -11 7 -11 10 -2 10 7 0 11 4 7 10 -3 5 3
18 14 29 11 11 16 22 13 26 -4 3 2 3 13 -1 11 -4 17 -4 13 1 -4 4 0 14 10 22
9 8 11 11 3 7 -9 -5 -12 -3 -7 5 4 6 11 9 15 6 12 -7 52 30 43 40 -4 5 1 5 11
2 11 -4 17 -1 17 9 0 8 5 12 10 9 9 -5 14 7 11 27 -1 9 27 4 36 -7z m-2527
-185 c0 -5 -2 -10 -4 -10 -3 0 -8 5 -11 10 -3 6 -1 10 4 10 6 0 11 -4 11 -10z
m-1008 -234 c-3 -5 3 -6 12 -3 14 6 17 3 12 -9 -5 -13 -3 -14 7 -6 7 7 18 7
27 2 8 -5 21 -5 32 1 10 5 18 6 17 2 -3 -20 2 -25 15 -14 10 8 16 9 21 1 3 -5
17 -10 31 -10 13 0 24 -6 24 -12 0 -9 4 -8 10 2 6 10 10 11 10 3 0 -7 3 -12 8
-12 18 3 46 -3 34 -8 -6 -2 -10 -9 -6 -14 3 -5 0 -9 -6 -9 -6 0 -8 -5 -5 -10
4 -6 0 -21 -8 -34 -11 -16 -12 -27 -5 -40 8 -14 7 -17 -1 -12 -6 4 -11 2 -11
-4 0 -6 -4 -9 -8 -6 -4 2 -9 -4 -9 -15 -1 -11 2 -17 8 -14 5 4 9 2 9 -3 0 -5
-9 -12 -20 -15 -13 -3 -18 -10 -14 -21 3 -9 0 -24 -7 -33 -8 -9 -9 -14 -3 -10
6 3 11 0 11 -7 0 -8 -7 -12 -15 -9 -12 5 -12 2 -2 -18 7 -13 9 -21 5 -17 -4 4
-14 0 -22 -10 -8 -9 -12 -11 -8 -4 3 6 1 12 -4 12 -6 0 -11 -6 -11 -14 0 -9
-9 -13 -25 -11 -22 2 -23 0 -13 -14 7 -9 8 -13 4 -9 -5 4 -16 2 -24 -5 -10 -7
-13 -8 -9 -1 4 7 -2 14 -14 17 -18 5 -19 8 -9 27 8 15 8 20 1 16 -7 -4 -11 1
-11 13 0 11 -5 23 -10 26 -8 5 -7 11 1 21 7 8 7 14 1 14 -5 0 -13 7 -16 16 -4
10 -2 13 7 7 6 -4 4 6 -7 21 -10 16 -14 26 -9 23 5 -4 10 0 10 8 0 8 -4 12 -9
9 -4 -3 -8 9 -8 25 0 17 -4 31 -9 31 -6 0 -9 12 -7 28 1 15 -5 33 -14 40 -13
12 -13 13 4 8 15 -5 17 -4 8 7 -9 10 -8 17 1 26 9 10 8 11 -5 6 -11 -4 -18 -2
-18 4 0 6 5 11 11 11 5 0 8 3 6 8 -3 4 5 7 18 7 13 0 21 -4 17 -9z m4208 -12
c0 -10 -5 -12 -12 -8 -8 5 -7 0 2 -11 9 -11 10 -16 3 -11 -7 4 -13 2 -13 -3 0
-6 6 -11 13 -11 8 0 8 -3 -2 -9 -8 -5 -11 -16 -8 -26 5 -11 3 -14 -5 -9 -7 5
-9 2 -5 -8 3 -9 0 -21 -6 -27 -8 -8 -8 -11 2 -11 7 0 9 -5 6 -10 -4 -6 -11 -7
-17 -4 -7 4 -8 2 -4 -5 4 -6 2 -19 -6 -28 -9 -12 -9 -15 0 -9 6 4 12 2 12 -3
0 -6 -5 -11 -11 -11 -6 0 -8 -8 -4 -19 3 -11 0 -23 -6 -27 -8 -5 -9 -3 -4 6 5
9 4 11 -4 6 -6 -4 -8 -13 -4 -19 12 -19 12 -38 1 -31 -6 4 -8 -2 -3 -16 6 -19
4 -22 -10 -16 -15 5 -16 4 -6 -8 8 -10 9 -16 1 -21 -6 -3 -8 -11 -5 -16 4 -5
1 -9 -5 -9 -6 0 -9 -4 -5 -9 3 -5 1 -12 -5 -16 -5 -3 -10 -1 -10 5 0 7 -7 9
-16 6 -8 -3 -12 -2 -9 4 3 5 -13 17 -35 26 -30 12 -38 19 -28 25 10 7 10 9 -2
10 -8 1 -18 1 -21 1 -3 -1 -6 5 -6 13 0 7 7 11 16 8 11 -3 11 -1 -2 7 -11 7
-17 21 -15 35 2 15 -5 30 -17 39 -11 9 -14 16 -7 16 6 0 12 5 12 11 0 5 -5 7
-12 3 -8 -5 -9 -2 -5 9 4 12 1 17 -11 17 -15 0 -15 2 -2 10 12 8 12 10 1 10
-10 0 -11 3 -2 14 9 11 9 16 0 22 -8 4 -9 3 -5 -4 4 -7 2 -12 -3 -12 -15 0
-14 23 2 39 10 10 8 11 -8 5 -18 -7 -19 -6 -5 11 8 10 10 16 3 12 -6 -4 -14
-4 -16 1 -3 4 6 12 19 19 18 8 22 8 17 0 -4 -8 -2 -8 9 0 8 7 18 10 21 6 4 -3
7 -1 7 7 0 9 3 10 13 1 10 -8 19 -7 33 4 24 18 38 19 28 3 -6 -9 -3 -9 9 0 9
8 21 11 27 7 5 -3 13 1 16 10 6 14 9 14 16 3 8 -10 11 -11 15 0 4 10 8 10 21
0 12 -10 14 -10 8 0 -4 7 -1 12 9 12 9 0 14 -5 10 -12 -3 -7 0 -5 7 4 14 19
28 15 28 -8z m-1225 -54 c3 -5 1 -10 -4 -10 -6 0 -11 5 -11 10 0 6 2 10 4 10
3 0 8 -4 11 -10z m731 -30 c14 0 15 -3 18 -40 0 -10 9 -28 18 -40 12 -13 14
-20 5 -20 -8 0 -7 -4 3 -10 8 -5 11 -10 6 -10 -5 0 -3 -7 4 -15 6 -8 8 -20 4
-26 -4 -8 -3 -9 4 -5 8 5 12 0 12 -13 0 -12 4 -21 8 -21 5 0 9 -6 10 -12 3
-43 7 -58 15 -58 5 0 3 -8 -4 -17 -8 -9 -9 -14 -4 -11 6 4 17 -2 24 -14 7 -11
8 -17 2 -13 -6 3 -11 2 -11 -4 0 -5 5 -11 11 -13 5 -2 11 -10 12 -18 4 -27 19
-41 34 -35 14 5 14 3 2 -11 -13 -16 -12 -16 8 -6 19 11 24 9 33 -8 6 -11 18
-20 26 -20 9 0 12 5 8 12 -4 7 -3 8 4 4 6 -4 9 -13 6 -21 -4 -10 0 -13 14 -10
13 2 22 -3 25 -15 3 -13 11 -17 25 -13 11 2 23 -1 27 -8 5 -8 4 -10 -3 -5 -7
4 -12 1 -12 -8 0 -9 5 -16 10 -16 6 0 10 -5 10 -11 0 -5 -4 -8 -9 -5 -5 3 -11
-1 -15 -9 -3 -8 0 -15 6 -15 7 0 3 -7 -8 -16 -15 -12 -16 -17 -5 -21 11 -4 11
-7 0 -13 -10 -7 -10 -11 1 -24 11 -14 10 -16 -3 -10 -12 4 -15 -1 -13 -29 2
-24 -1 -34 -9 -31 -7 3 -11 -4 -10 -18 1 -13 -5 -28 -13 -34 -12 -9 -12 -13
-2 -19 9 -6 11 -4 5 5 -5 9 -4 11 4 6 9 -6 9 -11 0 -22 -6 -7 -15 -12 -19 -9
-5 3 -12 0 -16 -6 -4 -8 -3 -9 4 -5 7 4 12 5 12 2 0 -2 -13 -11 -29 -19 -22
-11 -32 -12 -42 -3 -9 8 -10 8 -5 -1 4 -8 2 -13 -6 -14 -7 0 -22 -3 -33 -5
-11 -3 -29 -6 -40 -7 -11 -1 -26 -9 -33 -17 -10 -11 -12 -12 -6 -1 6 11 3 13
-12 7 -10 -5 -25 -9 -31 -9 -7 0 -13 -4 -13 -8 0 -4 -12 -6 -26 -3 -14 3 -23
1 -20 -4 3 -5 -1 -9 -9 -9 -8 0 -12 4 -9 9 3 4 -2 8 -10 8 -10 0 -13 6 -9 17
5 12 3 14 -7 8 -8 -5 -11 -4 -6 3 3 6 1 14 -5 17 -5 4 -8 14 -5 22 5 11 2 13
-10 9 -14 -5 -15 -4 -4 9 10 12 10 15 -4 15 -10 0 -14 5 -11 10 3 6 2 10 -4
10 -6 0 -7 7 -4 17 4 11 3 14 -5 9 -8 -5 -12 0 -12 14 0 12 -4 18 -10 15 -5
-3 -10 0 -10 7 0 7 -11 18 -25 25 -14 6 -23 7 -19 2 10 -16 -8 -9 -23 9 -8 9
-11 11 -8 4 6 -11 3 -12 -14 -2 -12 6 -19 16 -15 21 4 8 0 8 -12 1 -22 -11
-46 -5 -57 14 -4 7 -15 10 -24 7 -9 -3 -19 0 -24 9 -5 10 -18 14 -33 11 -13
-3 -27 0 -30 6 -4 6 -14 11 -22 11 -9 0 -12 -5 -8 -12 4 -7 3 -8 -4 -4 -6 4
-9 13 -6 20 3 8 -2 13 -13 13 -37 0 -41 4 -39 34 1 16 -1 32 -6 35 -4 3 -1 16
8 30 9 13 13 24 9 24 -4 0 -3 6 2 13 5 6 8 24 7 40 -2 15 1 25 5 23 4 -3 8 1
8 9 0 8 -5 11 -11 8 -6 -4 -5 0 2 9 7 9 11 28 8 42 -3 14 0 29 6 32 7 5 8 2 3
-6 -5 -9 -4 -11 4 -6 9 6 9 11 1 21 -7 9 -8 15 -1 19 6 4 7 14 4 23 -5 12 -3
14 8 8 12 -8 12 -6 0 8 -8 11 -9 17 -3 17 7 0 9 7 5 17 -5 12 -3 14 7 8 10 -6
12 -1 7 25 -6 27 -4 31 9 26 15 -6 15 -4 3 11 -13 15 -12 16 9 11 16 -5 22 -2
23 10 0 11 2 13 6 4 4 -10 8 -10 19 -1 11 9 14 9 14 0 0 -8 6 -7 16 3 12 13
20 14 36 5 12 -6 18 -7 14 -1 -9 15 20 22 34 9 10 -9 11 -9 6 1 -7 11 24 18
63 13 7 -2 11 2 7 7 -3 5 1 9 9 9 8 0 15 -5 15 -11 0 -6 4 -5 9 3 5 8 17 16
25 17 9 1 14 -1 11 -5 -2 -4 2 -8 10 -8 8 0 12 4 10 8 -3 3 4 9 15 12 13 3 18
1 14 -6 -5 -9 -4 -9 6 0 7 6 19 9 28 6 11 -5 13 -3 7 8 -8 12 -6 12 8 0 15
-12 17 -11 18 5 0 11 3 14 6 7 2 -7 11 -13 19 -13z m-3262 -13 c-3 -7 0 -5 8
3 14 17 52 15 42 -2 -4 -6 3 -5 16 2 18 10 25 8 43 -7 11 -10 17 -12 13 -5 -4
6 -2 12 3 12 6 0 11 -4 11 -10 0 -5 7 -6 17 -3 12 5 14 3 8 -8 -8 -12 -6 -12
8 0 13 10 17 10 17 1 0 -9 4 -9 17 1 10 8 14 9 10 2 -5 -7 -1 -12 10 -12 36
-1 53 -4 53 -10 0 -3 19 -7 42 -8 22 -1 45 -8 49 -15 5 -7 9 -8 9 -2 0 6 7 11
15 11 8 0 12 -4 10 -8 -3 -4 2 -10 11 -13 8 -3 12 -2 9 4 -3 6 -1 10 4 10 6 0
11 -5 11 -11 0 -5 5 -7 11 -3 8 5 10 -3 7 -25 -4 -26 -1 -34 16 -41 20 -8 20
-9 1 -10 -15 0 -17 -2 -6 -9 8 -5 10 -14 6 -21 -6 -9 -4 -11 5 -5 9 6 10 2 5
-15 -4 -13 -3 -20 2 -17 5 4 10 0 10 -8 0 -8 -4 -12 -9 -9 -4 3 -8 1 -8 -5 0
-5 4 -11 10 -13 5 -1 10 -18 12 -35 1 -18 7 -33 13 -33 5 0 3 -5 -5 -10 -12
-8 -12 -10 -1 -10 11 0 11 -3 0 -17 -8 -9 -9 -14 -3 -10 16 10 25 -18 11 -33
-9 -10 -9 -11 2 -5 11 6 13 4 8 -8 -4 -10 -2 -17 5 -17 7 0 6 -5 -2 -15 -7 -8
-8 -15 -3 -15 6 0 10 -10 9 -22 -1 -13 3 -26 9 -30 6 -5 6 -8 -2 -8 -7 0 -10
-7 -7 -15 4 -9 0 -15 -10 -15 -9 0 -16 -6 -16 -12 0 -9 -4 -8 -10 2 -7 11 -10
11 -10 2 0 -7 -4 -10 -10 -7 -5 3 -10 2 -10 -4 0 -6 -7 -8 -15 -5 -8 4 -15 1
-15 -6 0 -8 -9 -11 -25 -8 -13 3 -22 1 -19 -3 6 -11 -41 -23 -55 -15 -6 4 -8
-2 -6 -15 3 -15 1 -19 -5 -13 -12 12 -70 6 -70 -8 0 -5 -4 -6 -10 -3 -5 3 -10
1 -10 -5 0 -6 -4 -8 -10 -5 -5 3 -10 1 -10 -6 0 -8 -4 -8 -16 1 -12 11 -15 11
-12 -1 2 -9 -5 -14 -19 -13 -14 1 -20 -3 -16 -13 3 -8 0 -13 -7 -11 -7 2 -15
-3 -18 -11 -3 -10 0 -11 9 -5 12 7 12 5 0 -9 -7 -9 -18 -14 -25 -10 -6 4 -5
-1 3 -11 12 -15 12 -17 0 -14 -8 2 -13 -3 -11 -11 2 -9 -3 -11 -15 -7 -14 6
-15 5 -6 -5 10 -10 10 -16 0 -28 -10 -12 -9 -13 2 -6 10 6 12 4 7 -4 -5 -7
-14 -10 -22 -7 -12 5 -12 2 -3 -17 11 -20 11 -21 -5 -8 -14 12 -16 12 -11 -1
3 -8 -2 -21 -11 -29 -16 -12 -17 -12 -9 1 8 13 7 13 -8 1 -12 -9 -17 -10 -17
-2 0 7 -8 11 -17 9 -10 -2 -17 2 -16 8 1 6 -4 11 -12 11 -8 0 -12 -4 -10 -8 3
-4 -3 -6 -12 -5 -9 2 -18 7 -20 13 -2 6 -17 9 -32 7 -20 -2 -31 2 -35 12 -5
13 -9 14 -20 5 -11 -9 -15 -8 -20 5 -5 12 -10 14 -17 7 -8 -8 -22 -5 -50 10
-27 14 -35 23 -27 29 10 6 9 8 -2 8 -13 0 -13 1 0 10 13 8 12 10 -4 10 -16 0
-17 2 -5 17 8 10 9 14 2 10 -6 -4 -14 -3 -18 3 -3 5 -1 10 6 10 8 0 6 6 -4 18
-13 15 -14 21 -4 32 10 10 9 11 -2 5 -11 -6 -13 -4 -8 8 3 10 2 17 -4 17 -6 0
-6 6 0 19 8 13 6 23 -5 37 -14 18 -15 18 -5 -3 6 -12 7 -24 3 -27 -9 -5 -12
11 -12 56 0 15 -5 30 -10 33 -8 5 -8 11 0 20 7 8 9 19 5 26 -6 8 -2 8 14 0 12
-7 21 -8 20 -4 -1 4 -1 15 0 23 1 13 2 13 11 0 6 -10 10 -11 10 -2 0 6 6 11
13 10 7 -2 11 5 9 17 -2 15 -1 17 7 6 7 -12 14 -10 36 8 15 11 37 21 47 21 14
0 18 5 14 16 -3 8 -2 12 4 9 6 -3 10 -1 10 5 0 6 4 9 9 6 5 -4 7 3 4 14 -3 12
0 20 6 20 7 0 9 5 6 10 -4 6 -2 16 3 23 6 7 12 17 14 22 1 6 7 9 11 7 4 -1 3
6 -3 17 -13 25 -13 34 0 26 6 -3 10 -1 10 5 0 6 6 8 13 4 9 -5 9 -4 0 6 -10
11 -9 18 5 34 9 11 11 16 4 12 -11 -7 -11 -4 -1 15 29 56 31 61 19 54 -16 -10
10 36 30 52 13 11 12 12 -4 6 -19 -6 -19 -6 0 19 18 25 40 29 28 5z m2600
-109 c-3 -4 0 -8 7 -8 7 0 9 -3 6 -7 -4 -3 -1 -13 6 -21 9 -13 9 -14 0 -8 -8
4 -13 2 -13 -4 0 -6 -4 -9 -8 -6 -5 3 -9 -1 -9 -9 0 -8 5 -11 10 -8 7 4 7 -1
2 -13 -4 -10 -7 -27 -7 -37 0 -9 -4 -15 -9 -11 -12 7 -7 -19 6 -28 5 -4 2 -10
-8 -14 -15 -5 -15 -9 -5 -22 11 -13 10 -15 -3 -10 -12 5 -15 0 -15 -17 1 -13
5 -27 9 -31 4 -4 7 -12 7 -18 0 -6 -5 -4 -11 4 -8 12 -9 7 -6 -17 3 -25 0 -33
-12 -33 -11 0 -12 -3 -4 -8 9 -5 9 -11 0 -22 -14 -18 -39 -20 -49 -3 -5 6 -18
9 -30 5 -14 -3 -19 -1 -14 6 5 8 -3 11 -24 8 -22 -2 -30 0 -26 9 3 8 -2 11
-15 8 -10 -3 -19 -1 -19 5 0 5 -6 10 -12 9 -44 -1 -68 4 -62 14 4 7 -1 9 -12
7 -12 -2 -24 4 -31 17 -11 18 -12 18 -13 2 0 -10 -5 -15 -10 -12 -6 4 -8 10
-5 15 3 5 0 12 -6 16 -8 4 -9 3 -5 -4 4 -7 3 -12 -3 -12 -17 0 -18 25 -2 38
10 8 10 11 2 6 -9 -5 -12 -3 -7 4 4 7 14 12 23 12 10 0 13 5 9 17 -4 10 -4 14
0 10 4 -4 13 1 21 11 8 9 11 11 7 3 -5 -9 -3 -12 5 -7 6 4 9 11 7 15 -6 8 71
95 86 97 4 1 13 2 19 3 5 0 7 5 4 11 -4 6 2 7 17 1 17 -6 26 -4 36 8 7 9 11
10 7 4 -3 -7 -1 -13 4 -13 6 0 11 4 11 9 0 6 16 8 35 7 19 -2 33 0 30 4 -3 4
3 11 12 15 10 3 19 1 21 -4 2 -6 8 -11 14 -11 6 0 8 6 5 13 -3 7 3 13 13 13
10 0 16 -4 14 -8z m-1914 -8 c0 -3 11 -7 26 -8 17 -1 23 2 19 11 -4 6 1 3 9
-7 9 -11 16 -15 16 -9 0 6 9 9 20 6 11 -3 20 -10 20 -17 0 -6 5 -4 10 4 7 11
10 11 10 2 0 -7 5 -10 10 -7 6 3 10 1 10 -4 0 -6 5 -11 11 -11 5 0 7 6 3 13
-6 8 -3 8 9 -1 9 -8 21 -11 27 -7 5 3 13 -1 16 -9 3 -9 11 -13 17 -9 7 4 8 0
3 -13 -4 -10 -4 -15 0 -11 4 4 13 -1 21 -11 8 -9 11 -11 7 -3 -4 9 -3 12 4 7
6 -3 9 -16 7 -27 -4 -17 -2 -19 11 -8 12 10 13 9 9 -3 -4 -9 4 -22 20 -32 14
-10 23 -22 19 -28 -5 -7 -2 -9 9 -5 9 3 16 3 15 -1 -1 -4 3 -17 10 -29 12 -22
11 -24 -4 -22 -3 0 -12 -8 -20 -18 -9 -12 -13 -13 -14 -5 0 10 -4 10 -16 -2
-18 -19 -38 -21 -29 -3 4 6 -3 1 -14 -12 -12 -13 -21 -18 -21 -12 0 6 -5 11
-11 11 -5 0 -8 -4 -5 -9 3 -5 -1 -11 -9 -15 -8 -3 -15 0 -15 7 0 7 -7 3 -15
-7 -8 -11 -15 -16 -15 -12 0 5 -8 2 -17 -5 -15 -12 -16 -12 -8 1 8 13 6 13 -8
2 -9 -8 -21 -11 -27 -7 -5 3 -10 -2 -10 -12 0 -15 -2 -16 -10 -3 -7 12 -10 12
-10 1 0 -7 -6 -11 -15 -7 -8 3 -19 -2 -24 -12 -9 -14 -11 -14 -12 -2 -1 8 -1
19 0 24 1 5 -5 3 -14 -4 -9 -7 -15 -9 -14 -4 1 5 1 28 0 52 -1 30 -5 41 -13
36 -7 -4 -8 -3 -4 5 5 7 9 23 11 37 2 18 -1 22 -10 14 -8 -7 -11 1 -8 30 2 25
-1 40 -8 40 -8 0 -7 6 2 17 8 9 9 14 3 10 -7 -4 -14 0 -18 8 -3 8 0 15 7 15 8
0 8 3 -2 9 -10 7 -11 10 -1 16 10 6 9 11 -4 20 -21 16 -12 41 14 41 11 0 20
-3 20 -6z m2905 -168 c-3 -3 -11 0 -18 7 -9 10 -8 11 6 5 10 -3 15 -9 12 -12z
m-1985 -79 c0 4 9 3 20 -3 16 -8 18 -8 14 4 -5 13 -1 13 25 3 16 -6 27 -15 24
-20 -3 -5 4 -4 15 2 15 8 23 8 28 -1 5 -7 3 -8 -6 -3 -9 6 -11 4 -6 -4 5 -7
14 -10 22 -7 8 3 14 0 14 -7 0 -8 4 -6 10 3 6 10 10 11 10 3 0 -7 7 -13 15
-13 8 0 15 -6 15 -12 0 -9 4 -8 10 2 6 9 10 10 10 3 0 -7 9 -10 21 -8 17 4 19
2 9 -10 -10 -12 -9 -15 6 -15 18 -1 18 -1 0 -15 -10 -8 -22 -12 -26 -10 -4 3
-7 -3 -6 -13 0 -9 -5 -16 -11 -15 -7 2 -12 0 -12 -5 4 -21 -2 -32 -13 -26 -7
5 -9 2 -5 -9 3 -9 0 -18 -9 -21 -10 -4 -12 -2 -8 6 4 7 3 8 -4 4 -6 -4 -9 -13
-6 -20 3 -8 0 -17 -7 -22 -8 -4 -10 -3 -5 4 4 7 5 12 1 12 -3 0 -10 -12 -15
-26 -6 -14 -19 -28 -30 -31 -11 -3 -17 -9 -14 -14 3 -5 0 -9 -6 -9 -6 0 -9 -4
-6 -8 3 -5 -4 -14 -14 -22 -10 -8 -17 -16 -15 -20 2 -3 -5 -6 -16 -6 -10 0
-19 4 -19 9 0 4 -5 5 -11 1 -8 -4 -9 1 -4 17 4 16 3 19 -3 11 -7 -10 -11 -10
-21 2 -7 8 -9 21 -5 27 4 7 3 9 -3 6 -14 -9 -51 25 -46 41 3 8 -1 10 -13 5
-14 -5 -16 -3 -11 11 6 15 3 17 -13 13 -10 -3 -19 -2 -19 2 2 16 -14 50 -22
45 -5 -3 -9 2 -9 11 0 9 -4 13 -10 10 -5 -3 -10 3 -10 15 0 12 -3 19 -8 16 -4
-2 -12 6 -19 20 -10 22 -10 23 11 12 20 -11 20 -10 6 8 -8 10 -10 16 -6 12 5
-4 14 -4 20 1 17 12 48 22 42 13 -3 -5 1 -9 9 -9 8 0 12 4 9 9 -3 4 0 8 6 8 6
0 8 5 4 11 -4 8 0 8 15 0 13 -7 21 -8 21 -2 0 6 8 7 18 4 15 -6 16 -5 2 12
-14 17 -14 18 7 7 17 -10 22 -9 28 5 5 15 7 15 15 3 6 -8 10 -11 10 -7z m-381
-164 c-8 -4 -4 -9 10 -14 12 -3 21 -15 21 -26 0 -10 5 -18 12 -16 6 1 18 -11
26 -26 8 -16 19 -26 27 -23 9 3 11 -2 8 -17 -4 -18 -3 -20 7 -7 10 13 11 12 7
-6 -3 -16 0 -20 12 -17 9 2 22 -6 30 -19 13 -22 13 -23 -6 -5 -16 14 -20 14
-20 2 0 -8 3 -12 7 -10 8 5 76 -59 99 -93 8 -12 18 -19 23 -16 4 3 5 -2 2 -10
-3 -9 -1 -16 5 -16 6 0 8 -7 5 -15 -4 -8 -11 -12 -18 -8 -6 4 -4 -2 4 -12 8
-10 10 -16 4 -12 -7 4 -18 -1 -25 -10 -12 -14 -12 -16 0 -8 10 5 12 4 7 -3 -4
-7 -14 -12 -22 -12 -8 0 -12 -4 -9 -10 3 -5 -1 -10 -11 -10 -14 0 -14 -3 -4
-15 11 -13 10 -14 -5 -8 -15 5 -17 3 -12 -12 7 -16 5 -16 -10 -4 -9 8 -14 9
-10 3 7 -11 -25 -66 -39 -65 -5 0 -8 -7 -8 -14 1 -8 -2 -12 -7 -9 -5 3 -9 0
-9 -6 0 -6 -4 -8 -10 -5 -5 3 -10 -1 -10 -9 0 -9 -7 -16 -15 -16 -9 0 -12 -6
-8 -17 4 -11 3 -14 -5 -9 -8 4 -12 1 -12 -10 0 -10 -3 -15 -6 -11 -4 3 -14 -2
-23 -11 -9 -10 -13 -13 -9 -7 4 6 -1 11 -13 11 -10 0 -19 -4 -19 -9 0 -5 -6
-4 -13 2 -8 6 -17 8 -20 4 -4 -3 -7 0 -7 8 0 11 -2 11 -10 -1 -6 -10 -10 -11
-10 -2 0 6 -11 12 -25 12 -14 0 -25 6 -25 13 0 7 -3 8 -8 2 -12 -17 -35 -17
-28 0 4 11 2 14 -7 8 -16 -10 -37 -13 -36 -5 3 20 -2 25 -11 12 -8 -12 -12
-12 -18 -2 -5 8 -16 10 -27 6 -11 -5 -16 -4 -12 2 3 6 -8 10 -29 9 -18 -1 -39
4 -45 11 -6 8 -14 12 -18 10 -3 -2 -12 2 -19 10 -8 9 -9 14 -2 14 7 0 4 7 -4
16 -19 19 -21 28 -3 18 6 -4 4 1 -5 12 -14 16 -15 23 -6 32 8 8 8 12 1 12 -6
0 -14 7 -17 16 -3 8 -2 13 3 10 4 -3 8 8 7 24 -1 19 -6 30 -15 30 -11 0 -9 6
5 22 19 22 19 22 0 8 -18 -14 -19 -13 -14 8 4 12 3 22 -2 22 -4 0 -6 11 -5 25
2 14 -1 25 -6 25 -6 0 -8 4 -5 9 3 4 1 22 -3 39 -8 26 -7 30 7 26 10 -3 6 2
-8 10 -14 8 -19 15 -12 16 7 0 11 3 8 8 -2 4 3 16 11 27 15 19 15 19 9 -5 -3
-14 -3 -19 0 -12 3 6 10 10 15 7 5 -4 6 0 3 8 -5 13 5 17 49 18 11 0 17 5 14
13 -3 7 1 13 9 13 7 0 11 -4 8 -9 -3 -4 0 -8 5 -8 6 0 11 5 11 11 0 6 7 9 15
6 8 -4 17 -2 21 4 3 6 13 8 21 5 8 -3 11 -1 8 4 -3 6 0 11 7 11 7 1 19 2 26 3
7 0 17 8 22 16 8 12 10 12 10 1 0 -10 3 -11 13 -2 8 6 17 8 20 4 4 -3 7 -1 7
7 0 10 3 10 15 0 13 -11 14 -10 9 4 -5 12 -2 17 7 16 25 -4 40 0 35 8 -3 5 1
9 9 9 8 0 12 -4 9 -9 -3 -4 -1 -8 4 -8 6 0 12 6 15 14 5 12 12 12 42 3 21 -6
31 -13 24 -18z m868 16 c5 -4 2 -5 -6 0 -10 5 -12 4 -7 -3 5 -9 13 -9 27 -2
15 8 21 7 25 -4 3 -9 12 -12 21 -9 12 5 14 3 8 -8 -7 -11 -5 -11 10 1 11 9 16
10 11 3 -7 -13 -3 -15 46 -15 15 -1 26 -6 25 -12 -1 -6 7 -11 18 -12 11 -1 25
-2 30 -4 6 -1 14 -2 18 -1 5 1 6 -3 3 -8 -4 -5 -2 -12 4 -16 5 -3 10 0 10 7 0
10 2 10 9 -1 5 -7 13 -11 19 -7 6 3 15 -2 21 -11 8 -14 11 -15 11 -3 1 13 2
13 10 -1 5 -9 21 -14 39 -13 20 1 29 -2 24 -9 -4 -6 0 -8 10 -4 9 3 16 3 16
-1 -4 -22 2 -32 14 -26 8 6 8 3 -2 -9 -7 -9 -11 -24 -7 -32 3 -10 -1 -15 -12
-16 -11 0 -12 -2 -4 -6 10 -4 10 -8 0 -21 -11 -13 -11 -14 1 -8 8 5 6 -3 -5
-20 -11 -15 -13 -25 -6 -21 7 5 12 3 12 -7 0 -9 -7 -16 -16 -16 -14 0 -14 -1
0 -16 17 -17 21 -29 7 -20 -4 3 -13 -6 -19 -19 -9 -19 -9 -25 1 -26 9 0 9 -2
0 -6 -7 -2 -13 -9 -13 -14 0 -6 6 -7 13 -2 6 4 4 -6 -7 -21 -10 -16 -13 -25
-7 -22 14 9 14 0 0 -25 -6 -11 -15 -17 -22 -12 -7 4 -6 0 2 -10 18 -23 -1 -72
-24 -63 -8 3 -15 1 -15 -4 0 -5 -7 -6 -17 -3 -10 4 -14 2 -10 -4 3 -5 0 -10
-8 -10 -8 0 -15 4 -15 9 0 5 -5 6 -10 3 -6 -4 -7 -11 -4 -17 4 -6 -3 -5 -16 2
-18 10 -21 9 -15 -1 6 -9 2 -11 -12 -7 -11 3 -28 -1 -38 -8 -13 -10 -22 -11
-32 -3 -9 9 -14 7 -19 -5 -4 -11 -11 -13 -23 -7 -17 9 -57 -10 -45 -22 9 -8
-19 -3 -35 7 -10 6 -12 5 -7 -2 5 -8 -1 -12 -14 -12 -14 0 -19 -4 -15 -12 4
-7 -3 -2 -14 11 l-21 23 -1 -23 0 -24 -9 23 c-5 12 -14 22 -20 22 -6 0 -8 5
-5 10 3 6 1 10 -5 10 -6 0 -9 4 -6 9 3 5 -3 11 -14 14 -11 3 -20 12 -20 21 0
9 -7 16 -15 16 -14 0 -20 13 -15 35 1 5 -1 7 -5 3 -8 -8 -45 27 -45 43 0 5 -4
7 -10 4 -5 -3 -10 4 -10 15 0 15 -5 20 -14 17 -18 -7 -36 11 -29 29 3 8 0 14
-6 14 -6 0 -11 6 -11 14 0 8 -5 18 -12 22 -7 5 -8 2 -3 -7 5 -8 4 -10 0 -6
-13 11 -15 38 -3 31 5 -3 8 2 6 12 -2 11 2 18 10 16 6 -1 12 7 12 18 0 11 6
20 14 20 7 0 16 9 19 21 3 12 10 19 14 16 5 -3 15 3 22 15 9 15 10 18 0 13 -8
-5 -10 -4 -5 3 4 7 14 12 22 12 8 0 13 3 11 8 -6 10 30 42 39 34 4 -4 5 0 2 8
-6 16 16 43 26 33 3 -4 6 1 6 11 0 10 5 14 11 10 8 -4 9 0 4 15 -5 17 -3 20
11 14 13 -5 16 -3 11 10 -3 9 -3 16 1 16 17 -3 35 1 29 7 -3 3 1 14 10 23 15
18 47 21 60 6z m615 -208 c-9 -10 -5 -13 18 -11 17 1 30 -2 30 -7 0 -5 10 -9
23 -9 18 0 19 -2 7 -10 -12 -8 -11 -10 5 -8 45 3 66 -2 59 -14 -4 -7 -4 -10 1
-6 4 4 15 2 23 -5 11 -8 14 -8 9 0 -4 6 -3 14 3 18 5 3 10 -1 10 -10 0 -9 5
-13 10 -10 6 3 10 2 10 -3 0 -6 9 -8 20 -5 12 3 20 0 20 -6 0 -7 5 -9 10 -6 6
3 10 1 10 -5 0 -6 5 -8 13 -4 7 5 6 0 -3 -11 -9 -11 -10 -16 -2 -11 7 4 12 1
12 -8 0 -9 5 -16 11 -16 5 0 7 -4 4 -10 -3 -5 -3 -10 2 -10 4 0 8 -11 8 -24 0
-13 -3 -22 -7 -19 -5 2 -8 -2 -9 -9 0 -10 -2 -10 -6 1 -5 11 -7 11 -14 0 -7
-11 -9 -11 -9 -1 0 11 -3 10 -14 -1 -8 -8 -30 -13 -49 -12 -29 2 -34 0 -29
-14 5 -14 3 -14 -10 -3 -14 11 -18 10 -27 -5 -6 -10 -11 -13 -11 -6 0 7 -7 10
-15 7 -8 -4 -12 -11 -8 -18 4 -6 -2 -4 -12 4 -14 11 -17 11 -11 1 7 -10 3 -12
-14 -6 -17 5 -21 4 -15 -6 5 -8 5 -11 0 -7 -4 4 -17 2 -29 -4 -19 -10 -20 -10
-7 5 18 23 9 21 -18 -2 -13 -12 -30 -17 -43 -13 -14 3 -19 1 -14 -6 5 -8 1
-10 -9 -5 -14 5 -14 8 -3 15 9 7 7 8 -8 5 -20 -4 -21 -3 -6 25 12 26 12 32 1
39 -11 7 -11 9 -1 9 7 0 10 5 7 10 -3 6 -2 10 3 10 5 0 7 12 4 26 -4 20 -2 25
8 19 8 -5 11 -4 7 2 -3 5 -8 22 -11 37 -4 21 -2 26 9 22 10 -3 12 2 9 20 -3
17 -1 23 7 19 8 -5 7 -1 -1 15 -10 18 -9 21 1 15 9 -6 11 -3 6 9 -4 9 -3 15 1
12 4 -2 14 -1 22 5 21 12 24 11 12 -4z m-2117 -24 c5 -14 3 -14 -12 -2 -17 13
-17 13 0 -7 20 -24 23 -48 5 -39 -7 4 -6 1 3 -7 9 -7 14 -19 12 -25 -3 -7 0
-13 6 -13 7 0 7 -8 1 -26 -7 -18 -7 -23 1 -18 8 5 10 -4 7 -29 -2 -20 -1 -35
2 -35 18 2 23 -4 10 -12 -11 -7 -11 -10 -2 -10 7 0 10 -4 7 -10 -3 -5 -1 -10
5 -10 8 0 8 -5 1 -17 -9 -18 -61 -25 -71 -11 -3 4 -21 9 -40 11 -20 2 -50 10
-68 19 -18 9 -30 13 -27 8 7 -11 -22 -7 -32 5 -5 4 -1 5 7 0 8 -5 12 -4 7 0
-10 11 -39 16 -33 6 3 -4 -4 -7 -15 -6 -11 1 -24 7 -29 14 -4 8 -14 11 -21 9
-8 -3 -20 2 -27 11 -12 14 -13 14 -8 -3 6 -16 4 -17 -9 -6 -8 7 -15 9 -15 4 0
-5 -5 -1 -11 9 -6 9 -14 15 -19 12 -5 -3 -12 0 -16 6 -4 7 -3 9 3 6 6 -4 17 1
24 10 12 14 12 15 1 9 -11 -7 -12 -4 -3 12 6 11 16 22 21 24 6 2 12 12 14 23
2 11 10 20 19 20 8 0 24 8 35 18 14 13 22 15 27 7 5 -8 12 -6 25 5 14 13 19
13 23 3 4 -9 6 -8 6 3 1 19 27 33 36 19 6 -10 44 7 58 25 4 6 11 4 17 -5 8
-13 10 -13 10 1 0 21 56 13 65 -8z m-990 -191 c-3 -3 -11 0 -18 7 -9 10 -8 11
6 5 10 -3 15 -9 12 -12z m2068 -103 c15 -17 27 -35 27 -40 0 -5 7 -9 16 -9 8
0 12 -4 9 -10 -3 -5 -1 -10 5 -10 7 0 9 -7 6 -16 -5 -14 -4 -15 9 -4 8 7 15
11 16 9 0 -2 3 -13 5 -24 3 -11 6 -25 6 -32 1 -6 7 -9 15 -6 7 3 13 -2 13 -12
0 -9 5 -13 10 -10 6 3 10 -1 10 -10 0 -12 -5 -15 -16 -11 -14 5 -15 4 -5 -8 9
-11 6 -13 -19 -11 -17 1 -37 -4 -45 -11 -10 -11 -15 -11 -18 -1 -4 9 -8 9 -15
-2 -5 -7 -15 -10 -21 -7 -6 4 -11 3 -11 -3 0 -6 -7 -8 -15 -5 -8 4 -23 0 -32
-7 -14 -12 -16 -12 -8 0 6 11 2 13 -19 9 -20 -4 -29 0 -37 14 -8 15 -14 17
-24 8 -10 -8 -16 -7 -23 6 -8 15 -10 15 -16 -1 -6 -17 -9 -16 -31 5 -27 25
-24 49 3 28 15 -12 16 -11 3 4 -11 15 -9 21 18 49 17 17 28 35 25 41 -4 7 -2
8 4 4 8 -4 12 0 12 11 0 14 2 15 9 5 7 -11 9 -11 14 2 3 8 1 17 -6 20 -7 2 -2
5 11 5 13 1 21 5 18 10 -3 5 1 12 10 15 8 3 12 10 9 16 -4 6 1 7 11 3 12 -4
15 -3 10 5 -16 26 31 10 57 -19z m487 -109 c0 -5 -5 -10 -11 -10 -5 0 -7 5 -4
10 3 6 8 10 11 10 2 0 4 -4 4 -10z m-880 -220 c0 -5 -2 -10 -4 -10 -3 0 -8 5
-11 10 -3 6 -1 10 4 10 6 0 11 -4 11 -10z"/>
<path d="M2870 4739 c0 -5 5 -7 10 -4 6 3 10 8 10 11 0 2 -4 4 -10 4 -5 0 -10
-5 -10 -11z"/>
<path d="M2860 4306 c0 -2 8 -10 18 -17 15 -13 16 -12 3 4 -13 16 -21 21 -21
13z"/>
<path d="M2220 4766 c0 -2 8 -10 18 -17 15 -13 16 -12 3 4 -13 16 -21 21 -21
13z"/>
<path d="M3907 4599 c7 -7 15 -10 18 -7 3 3 -2 9 -12 12 -14 6 -15 5 -6 -5z"/>
<path d="M890 4519 c0 -5 5 -7 10 -4 6 3 10 8 10 11 0 2 -4 4 -10 4 -5 0 -10
-5 -10 -11z"/>
<path d="M2145 3909 c-4 -6 -5 -12 -2 -15 2 -3 7 2 10 11 7 17 1 20 -8 4z"/>
<path d="M2065 3820 c-3 -6 1 -7 9 -4 18 7 21 14 7 14 -6 0 -13 -4 -16 -10z"/>
<path d="M1335 2040 c3 -5 8 -10 11 -10 2 0 4 5 4 10 0 6 -5 10 -11 10 -5 0
-7 -4 -4 -10z"/>
<path d="M3759 2023 c-13 -16 -12 -17 4 -4 16 13 21 21 13 21 -2 0 -10 -8 -17
-17z"/>
<path d="M3099 1363 c-13 -16 -12 -17 4 -4 16 13 21 21 13 21 -2 0 -10 -8 -17
-17z"/>
<path d="M2060 1306 c0 -2 8 -10 18 -17 15 -13 16 -12 3 4 -13 16 -21 21 -21
13z"/>
<path d="M873 2445 c0 -8 4 -12 9 -9 5 3 6 10 3 15 -9 13 -12 11 -12 -6z"/>
<path d="M920 2396 c0 -2 8 -10 18 -17 15 -13 16 -12 3 4 -13 16 -21 21 -21
13z"/>
<path d="M430 2560 c0 -5 5 -10 11 -10 5 0 7 5 4 10 -3 6 -8 10 -11 10 -2 0
-4 -4 -4 -10z"/>
<path d="M4779 2663 c-13 -17 -13 -17 6 -3 11 8 22 16 24 17 2 2 0 3 -6 3 -6
0 -17 -8 -24 -17z"/>
<path d="M4730 2256 c0 -2 8 -10 18 -17 15 -13 16 -12 3 4 -13 16 -21 21 -21
13z"/>
<path d="M926 2145 c4 -8 11 -15 16 -15 6 0 5 6 -2 15 -7 8 -14 15 -16 15 -2
0 -1 -7 2 -15z"/>
<path d="M1130 1976 c0 -2 8 -10 18 -17 15 -13 16 -12 3 4 -13 16 -21 21 -21
13z"/>
<path d="M720 1050 c-8 -5 -12 -12 -9 -15 4 -3 12 1 19 10 14 17 11 19 -10 5z"/>
<path d="M1806 368 c3 -5 10 -6 15 -3 13 9 11 12 -6 12 -8 0 -12 -4 -9 -9z"/>
<path d="M2735 520 c3 -5 8 -10 11 -10 2 0 4 5 4 10 0 6 -5 10 -11 10 -5 0 -7
-4 -4 -10z"/>
<path d="M3610 449 c0 -5 5 -7 10 -4 6 3 10 8 10 11 0 2 -4 4 -10 4 -5 0 -10
-5 -10 -11z"/>
<path d="M2600 5110 c8 -5 20 -10 25 -10 6 0 3 5 -5 10 -8 5 -19 10 -25 10 -5
0 -3 -5 5 -10z"/>
<path d="M2716 5087 c3 -10 9 -15 12 -12 3 3 0 11 -7 18 -10 9 -11 8 -5 -6z"/>
<path d="M3790 4816 c0 -2 7 -7 16 -10 8 -3 12 -2 9 4 -6 10 -25 14 -25 6z"/>
<path d="M4655 701 c-3 -5 -2 -12 3 -15 5 -3 9 1 9 9 0 17 -3 19 -12 6z"/>
<path d="M1430 276 c0 -2 7 -7 16 -10 8 -3 12 -2 9 4 -6 10 -25 14 -25 6z"/>
<path d="M2398 23 c7 -3 16 -2 19 1 4 3 -2 6 -13 5 -11 0 -14 -3 -6 -6z"/>
</g>
</svg>
